/* XPM */
static char *aSslMjgxJTI5KyUyODElMjk_[] = {
/* columns rows colors chars-per-pixel */
"64 64 248 2 ",
"   c #08140E",
".  c #091616",
"X  c #121D1A",
"o  c #06110A",
"O  c #18231C",
"+  c #1F321C",
"@  c #23291E",
"#  c #29361E",
"$  c #0A1E2A",
"%  c #131D24",
"&  c #1C2525",
"*  c #1D2A25",
"=  c #1B262B",
"-  c #1D292B",
";  c #162328",
":  c #0E2535",
">  c #172733",
",  c #0C212A",
"<  c #242C25",
"1  c #232B2C",
"2  c #282B2A",
"3  c #2B3226",
"4  c #26322C",
"5  c #2C332C",
"6  c #28392A",
"7  c #31352B",
"8  c #333B2C",
"9  c #383A27",
"0  c #242C32",
"q  c #2A2D35",
"w  c #2B3433",
"e  c #2D3B33",
"r  c #2C343B",
"t  c #2A3738",
"y  c #333B33",
"u  c #333C3B",
"i  c #3A3B3C",
"p  c #353636",
"a  c #302F34",
"s  c #563D2B",
"d  c #39422D",
"f  c #354135",
"g  c #3B4434",
"h  c #3C443B",
"j  c #3C4A3C",
"k  c #37463A",
"l  c #2A402D",
"z  c #46472A",
"x  c #58532B",
"c  c #424B3C",
"v  c #464735",
"b  c #49533A",
"n  c #575538",
"m  c #554B34",
"M  c #635A37",
"N  c #684830",
"B  c #7B7D37",
"V  c #6B673A",
"C  c #4A421E",
"Z  c #183447",
"A  c #173B56",
"S  c #0C324F",
"D  c #383B43",
"F  c #293A44",
"G  c #133C66",
"H  c #413942",
"J  c #3A4843",
"K  c #3F5247",
"L  c #2C4753",
"P  c #16476C",
"I  c #284768",
"U  c #355578",
"Y  c #305072",
"T  c #474847",
"R  c #425346",
"E  c #4B5444",
"W  c #42564B",
"Q  c #4A584A",
"!  c #525C4C",
"~  c #585747",
"^  c #4A4B54",
"/  c #465D52",
"(  c #485F54",
")  c #49545A",
"_  c #585758",
"`  c #554E50",
"'  c #655946",
"]  c #635A59",
"[  c #775542",
"{  c #596548",
"}  c #4A6155",
"|  c #4C6359",
" . c #4D6859",
".. c #546B5C",
"X. c #576857",
"o. c #586E55",
"O. c #696547",
"+. c #766B48",
"@. c #797749",
"#. c #696758",
"$. c #776B56",
"%. c #667557",
"&. c #7B7856",
"*. c #64744E",
"=. c #5B5B64",
"-. c #495661",
";. c #665C64",
":. c #78576C",
">. c #5A7364",
",. c #5A7567",
"<. c #566F6C",
"1. c #6A6567",
"2. c #766A68",
"3. c #657967",
"4. c #7A7767",
"5. c #6B6974",
"6. c #776B74",
"7. c #657C75",
"8. c #7B7578",
"9. c #817F31",
"0. c #807F2F",
"q. c #83784C",
"w. c #867958",
"e. c #8B6D56",
"r. c #877868",
"t. c #8C7B73",
"y. c #8B7D7C",
"u. c #847976",
"i. c #917D72",
"p. c #927E7C",
"a. c #877071",
"s. c #865B5D",
"d. c #7E8139",
"f. c #7A8247",
"g. c #758356",
"h. c #6C8159",
"j. c #6D836B",
"k. c #77866A",
"l. c #6C8878",
"z. c #748C7B",
"x. c #768974",
"c. c #7C9179",
"v. c #848233",
"b. c #84863B",
"n. c #868A3D",
"m. c #8A8836",
"M. c #868944",
"N. c #899249",
"B. c #8A8458",
"V. c #909351",
"C. c #96A15E",
"Z. c #888567",
"A. c #898777",
"S. c #93827D",
"D. c #978B78",
"F. c #889378",
"G. c #979579",
"H. c #959366",
"J. c #98AB78",
"K. c #8DA26D",
"L. c #AEA57A",
"P. c #A4996F",
"I. c #365981",
"U. c #787781",
"Y. c #887D86",
"T. c #977587",
"R. c #7D9D8C",
"E. c #779284",
"W. c #718986",
"Q. c #7693A6",
"!. c #8D8283",
"~. c #898487",
"^. c #938384",
"/. c #94848C",
"(. c #9C8D8B",
"). c #978987",
"_. c #869C87",
"`. c #9D928C",
"'. c #999784",
"]. c #9A8B93",
"[. c #978896",
"{. c #9C9397",
"}. c #888E94",
"|. c #A3938C",
" X c #A29393",
".X c #A69799",
"XX c #A08E90",
"oX c #8AA189",
"OX c #94A889",
"+X c #88A393",
"@X c #95AB94",
"#X c #9CB696",
"$X c #99B48B",
"%X c #A1B998",
"&X c #A6AF8E",
"*X c #9D93A6",
"=X c #A398A7",
"-X c #A49CB4",
";X c #9CB8A5",
":X c #99ABAE",
">X c #A4BCA5",
",X c #A9AAB7",
"<X c #A4C19D",
"1X c #AAC6A6",
"2X c #B3CDAE",
"3X c #B6CDB3",
"4X c #B4D2B5",
"5X c #BBD6BA",
"6X c #BDD9BC",
"7X c #B8D4B7",
"8X c #ABC4B5",
"9X c #C3D9BD",
"0X c #97BBD6",
"qX c #A9B0CD",
"wX c #9DC1DA",
"eX c #BDD9C2",
"rX c #A9CADA",
"tX c #B8D3D8",
"yX c #B0C6D1",
"uX c #9EC2E5",
"iX c #A4C6E5",
"pX c #B5D4E2",
"aX c #C4DEC3",
"sX c #C5DDC5",
"dX c #C8DAD2",
"fX c #C9E1C7",
"gX c #CDE4CB",
"hX c #C7E1C5",
"jX c #D1E5CD",
"kX c #D4E8CE",
"lX c #CDE4DB",
"zX c #D1E7D1",
"xX c #D4E9D3",
"cX c #DAEAD7",
"vX c #DCF3DA",
"bX c #E5F3DD",
"nX c #E4EAD8",
"mX c #C1DDE6",
"MX c #D1E8E7",
"NX c #E9F9E5",
"BX c #F4FCEC",
"VX c #FCFFF5",
"CX c #FDFFF9",
"ZX c #FFFFFD",
"AX c #FEFFFC",
"SX c #F2FDF6",
"DX c #E8FBF7",
"FX c #C1B289",
/* pixels */
"F.k.k.Z.k.F.x.F.F.J.#X<X2X3X9XfXxXbXNXBXDXNXBXbXBXNX9X*.{ %.3.#.! E E c { x.4.c.:X8X>X:X+X7.>.>.>.>.,.7.l.R.+XE.h. .| | | | ( | ",
"BXNXbXNXnXcXnXkXjXgXjXfXjXjXjXnXcXNXNXNXNXNXbXbX9X&Xk.n n E v g E ! ! ! g v d T W X.W.+XR.R.>...<.>.,.,.l.R.R.E.,...| | |  .| ( ",
"CXCXCXCXCXCXCXCXVXCXCXCXVXCXVXVXCXCXCXVXVXkX&Xx.E c { b R g 6 g j y 8 g Q g 8 3 j k b E >.j.3. .>.,.,.j.l.R.R.E.,. . . .| | ( ( ",
"CXCXCXCXCXCXCXCXCXCXZXZXZXZXZXZXZXCXCXVXVX4.v v b b c j f 5 5 4 l h 7 v E ! #.Q Q ! b d T #.X.3...,.,.,.W.R.R.E.,. . .} -.| | ( ",
"nXbXBXBXBXVXVXCXZXZXZXZXZXZXZXZXZXCXCXVX@Xg E j j k T e e y 1 < 4 y y 7 8 c ! c 8 ~ v c b ! X.{  .3.,.3.l.R.R.E.,. .| | | } ( ( ",
"O.*.h.h.Z.F.cXCXCXZXZXZXZXZXZXZXZXCXBX8.5 f y 4 4 6 Q h k Q e e h g e y h 7 @ c X @ c 5 y c Q ~ X.o.3.3.l.R.R.E.>. .} | | } ( ( ",
"{ Q b Q { %.kXVXCXZXZXZXZXZXZXZXCXCX>Xg Q 5 e 5 e e Q Q _ ! u p 4 y f c Q 3 3 p < O < i 8 3 y g E %.3.3.l.R.R.z... .| / ( / K | ",
"j.j.k.k.$X9XNXVXZXZXZXZXZXZXZXCXZXbX#.k f u u y p k T f 4 k h 5 & < < y h T y y p 3 5 y 7 @ 5 2 v o.o.o.l.R.R.W.>. . .( / / / | ",
"OXOX'.%XxXBXVXZXZXZXZXZXZXZXZXCXAXsXi e D J w w u e p 1 1 p u 4 & 1 1 4 k E h g y w & y g @ 4 @ 3 g { 3.l.R.R.W... .| } / } / / ",
"NXNXNXNXCXCXZXZXZXZXZXZXZXZXZXCXCX`.e J k 0 w t t 4 w 0 1 u u 4 1 1 1 w w 4 h j J g O < R T < < 1 e K %.l.R.R.l... .} / Q / / / ",
"ZXZXCXCXCXCXZXZXZXZXZXZXZXZXZXZXNX_ u J t t t 1 4 0 4 4 w t t 1 - 1 1 1 w 1 w h y p y < * h k 8 6 8 g o.l.R.R.z...} } } } / / / ",
"ZXZXCXZXZXZXZXZXZXZXZXZXZXZXCXZXsXj J t F 4 4 r 0 4 0 - w 1 1 & - - 1 - w & & & X < h R < 4 T k 4 y g } l.R.R.l...} } } / } / / ",
"CXCXZXZXCXAXAXCXZXZXZXAXZXZXCXCX}.f J J J r u F r r r r 0 = q 0 - 1 w 1 1 0 1 1 1 4 2 p p < p i 5 < 7 g o.oX_.W.| | / ( / / / / ",
"SXVXVXCXCXCXCXCXAXSXAXAXCXSXCXnXQ h h D D J D u r F F F 1 1 t r w w w 1 1 2 = 1 1 1 & 1 y 2 7 8 7 < y 4 R z.R.l...| / / / } / } ",
"NXNXNXDXDXBXSXSXBXSXBXNXNXNXBX_.e h J i w i p r D q i D r a p a w w a a 3 5 w p a < 1 % w 5 8 y 7 < p 5 Q 3.E.l. .} / K / / / / ",
"cXcXvXnXnXNXbXbXNXNXbXbXbXbXcXX.k T T c c h T J i T _ =.` ^ i a a p p i ` ] ] #.T i 2 & w y 5 7 3 O @ @ ! l.z.l. .} / / / / / / ",
"jXfXgXjXzXxXxXxXkXkXvXkXkXbX7Xc { ! E ` v T ] T 1.A.u.8.6._ p v ] 2.#.6.u.t.t.r.$.` a O < 2 7 7 i 7 < @ j x.E.l.} / / K / / K | ",
"9X9X9X9XaXaXaXfXhXhXfXfXhXkX#Xc #.~ #.' ~ #.$.2.^.!.!.!.u.2.] #.!.p.p.u.t.t.Z.i.2.] 9 @ @ 2 8 7 7 8 3 7 d 3.E.l.} / } K / / / / ",
"7X4X4X4X5X5X5X5X6X6X6X6X6XfXOXb 4.&.4.&.r.$.#.y.S.S.y.T.~.6.#.a.S.y.t.t.t.i.i.e.s.' p 2 2 7 i 9 7 8 3 @ f } E.7.( Q K / K / K | ",
"2X2X2X2X2X4X2X2X4X2X7X7X7XaXF.{ F.Z.r.D.D.r.a.p.).T.^.].[.8.1.a.T.p.i.i.i.i.i.r.r.' m m 9 2 c 7 7 7 3 @ j ,.z.l.} Q K K K K / K ",
"1X1X1X1X1X2X1X2X2X2X2X2X2XaXF.! D.Z.D.D.D.D.S.S.(.].].].{.Y.a.T.u.y.^.i.i.i.e.r.+.+.$.' g 9 m z 9 8 3 + K z.z.,./ Q W K K K / K ",
"<X<X<X<X<X<X<X1X1X1X1X2X1X5Xc.{ |.H.D.D.D.).(.|.XX{.{.{.{.[.Y.].^.^.^.p.i.r.r.e.$.r.$.+.' v m g v 8 3 4 Q z.z.3.R j j K K / Y K ",
"#X#X<X#X<X<X<X<X<X<X<X<X1X3Xc.{ J.D.P.D.D.D.|.(.{.[.{.*X=X{.].].].(.^.S.i.r.i.e.w.r.w.q.+.n n v v 7 3 3 Q x.3.X.j d d f j j K K ",
"$X$X$X#X$X#X#X$X$X<X%X%X%X%XF.{ G.G.D.D.(.|.|.|..X.X*X*X=X=X*X*X[./.^.p.i.i.r.w.i.w.w.e.+.V { n b 9 7 8 ! 3.%.E d l 6 l k k K K ",
"c.J.$X$XJ.$XJ.J.J.J.J.J.L.J.H.*.G.P.G.|.'.|..X.X.X=X=X=X-X=X*XT.].].^.S.t.r.t.r.r.w.w.q.w.O.n m b d 8 d E o.n v 9 9 9 3 9 d k K ",
"g.C.K.K.K.K.K.c.C.C.C.C.C.C.g.&.G.G.G.|.{..X X.X=X=X=X-XqX-X*X*X*X[.[./.y.S.i.D.t.w.w.q.w.@.V n m d d d b { ~ m z 9 d 9 9 9 g j ",
"f.N.N.N.C.C.g.C.C.N.N.C.V.V.@.&.D.'.).A.~.~.~./.[.*X-X,XqXqX-X-X*X*X[.T.!.y.t.r.r.Z.w.w.q.q.q.M z v d 9 { +.e.+.V n M M x z d j ",
"m.n.n.d.N.f.N.N.m.N.N.m.n.M.g.g.G.k._ T ^ H ^ ;.Y.Y.[.=X-XqX,X*X[.Y.Y.Y.5.1.=._ #.$.4.w.w.B.B.B b d 3 z &.Z.P.e.w.@.q.@.V b d f ",
"d.m.v.m.m.n.N.f.m.N.N.m.N.C.w.A.4.T w 1 & 1 0 D ;.U.Y.[.*X[.[.}.U.=.^ D D r r p y v O.w.B.q.B.&.x d 9 +.H.L.P.P.B.B.B.q.O.b d g ",
"v.d.v.v.m.m.f.d.m.m.N.N.n.N.w.A.#.8 p J D T ^ =.5.U.Y./.Y.Y.T.Y.:.T D w = 0 1 = 1 5 v $.B.B.B.M.n d V H.L.FXL.B.B.Z.H.g.{ z d f ",
"v.v.v.v.d.d.n.N.N.N.m.d.f.g.&.A.#.] 2.8.~.~.Y.8.6.a.Y./.T.Y.Y.u.6.5.5.=.=.1.=._ _ ` b O.q.B.B.q.z m $.w.e.e.H.Z.F.F.'.c.o.j e l ",
"v.v.v.v.m.d.d.d.m.m.n.d.g.k.k.Z.4.x.u.8.1.) =.=.;.6.8.T.[.[.Y.2.1.2.5.6.6.6.5.1.2.2.2.#.+.q.B.q.x n +.e.e.N r.A.@X#X#X_.3.j e f ",
"B d.d.d.d.d.d.d.d.b.f.g.%.k.F.A.A.4.` T =.D q D =.6.u.)..X/.a.$.6.6.=.^ H H D ^ ` 2.4.2.+.&.B.M.x M e.e.e.s.Z.~.#X>X#X_.3.f e e ",
"B d.B d.d.d.d.d.d.d.f.g.j.7.k.F.G.4.! 2.-X-.F U.Y.8.y.|..X).2.2.u.1.5.*X-.$ H =.p m #.r.&.w.B.q.n M s e.e.e.4.z.+X+XE.l.W 6 e f ",
"d.d.d.d.d.d.d.d.B B f.g.j.3.3.).G.D.A.8.U.Y.U.U.6.Y.^.|. X).r.2.Y.8.U.-X}.Y U.8.#.] 2.r.r.B.Z.q.N s s s.e.r.E ..l.7.%.K e 6 e f ",
"d.d.f.d.d.d.f.f.B *.*.%.%.o.%.F.'.D.D.u.1.;.;.6.T.[.T.|.XXp.a.r.u.~.U.=.5.U.;.] #.4.Z.r.B.B.B.q.N 9.N N r.O.c R ( W k 4 6 e e e ",
"d.d.h.f.f.h.g.g.g.h.h.h.j.o.*.F.'.'.'.(.).Y.Y.]..X).(.|.XXp.i.r.a.^.T.Y.5.5.1.2.r.A.t.t.Z.B.B.V x V s N i.' Q / K J l 6 e e l l ",
"V x { { { h.h.K.OX$XOXOXOX$XoXk.'.`.|.{.|.XXXX.X.X X.X|.S.p.i.i.r.y.[.XXT./././.~.S.A.Z.Z.Z.B.V N s N e.r.! _ ( K K t l l t f t ",
"l b h.h.k.c.$X1X7X6X7X6X9X5X9XA.'.`.`.`.|.XX|..X.X|..X|.p.i.S.i.y.S././.].].(./.^.S.D.Z.B.B.B.x x 9.e.w.%.Q Q W K k l t t f t f ",
"+  .R.<X2X7XhXkXvXbXbXbXbXbXbXOXA.'.`.{.XXXX|.|.|.|.D.(.p.a.r.Z.t.S.^.T.].]././.^.S.i.i.Z.w.@.z M 9.P.r.E W K J K J t 6 t l t f ",
"o.c.;X6XeXzXxXvXbXNXNXNXNXNXBX@XA.).`.`.`.].XX X|.(.|.).T.i.e.s.r.p././.[.].].^.T.u.A.r.r.&.n z q.@.Z.{ k J K K K K l t t l t f ",
"z.R.;X4XeXhXhXgXgXhXgXgXgXgXkXOXk.D.).`.XX X X X|.=X.X X).^.i.r.2.p.XX]./.]././.S.A.r.r.w.+.b x +.B.O.j J k k T K k 4 4 6 4 t t ",
"E.W.R.R.+X+X+X@XOXoXoXoXoXoXoXk.4.D.).`.XXXXXX]..X.X.X=XXX^.S.S.s.a..X[.]././.Y.!.u.r.4.&.{ z { &.o.o. .J 4 a w l 4 * * * * * ; ",
"l.j.<. .o.} / j l + + + + # + 6 1.G.~.).(.(.].XXY.u.T.[.T.8.` ' #.a.].[.[././.!.u.Z.r.4.O.n z g.x.3.x.7.K ; % % % X X X X X X , ",
"4 0 4 < + * O O * l l l l l l e Q F.D.).(.(.`..XXXu.;.5.;.H H :.a.^.).]./.^.!.y.u.u.4.$.n b d g.F.j.l.3.H . . . . . $ . . . . $ ",
"  o           l j.z.l.l.x.x.z.x.! 4.~.F.`.`.!.8._ D D -.;.H D ` 8.~./././.!.!.A.A.4.4.~ b v C k.j...<.-.Z : : : : : : : : : : : ",
". . . . .   X ,.@X;X;X;X;X>X>X8Xo.#.A.).).1.h D a q Z D ^ 0 q q H _ ;.6.y.y.u.u.u.2.~ E c 9 C Z.l.Y U Y I I I I G I G I I G G I ",
". . .   .   O l.8X4X6X4X4X4X3XsX_.k 2._.2.< 1 u H q q D H F = q q a a p ^ 2.A.8.#.! v h g 9 z F.U.U U I.I.I.U U Y I I I.I.I.Y I.",
"o o o o o o   j.8XeX6X4X4X4X4XeX#Xe Q 8.^ p T ^ 1.] 6.Y.T.U.^ ^ ;.` i 2 2 T 2._ E i i y 8 @ x D.l.U -.I.Y Y Y Y I I Y Y I I I I ",
"4 4 4 4 6 6 l l.1XeXeX6X4X4X4XeX>Xf 5 T T h =.1.] :.:.:.:.:.:.=.` T ^ ^ 2 w h p p 5 7 y 7 # z H.7.F L A A Z F Z Z F Z Z t S Z t ",
"oXoX_.oXoXoXR.#X8X4XeX4X4X4X4XeX5XQ & 4 D u ;.~.T.T.a.s.:.:.:.:.] ` 6.=.q a a 2 5 2 2 1 4 # V V.OXe , : : : : , , , , : , , , $ ",
"4X4X4X4X4X4X4X4X5X6X6X4X6X6X6X6XfXl.* - w w =./.Y.T.T.T.T.T.T.:.:.Y.Y.^ 1 r 0 1 1 1 1 < @ z +.q.L.g.* : : > > : : : : : : : : : ",
"hXhXhXaXaXaXeXeXeX6XeX6X6X6X6XhXgX@X4 * 1 1 ^ ~.8.6.6.Y.a.U.T.6.a.Y.6.^ 0 q 0 - - - - & 7 M +.B.C.&X4.j K L S A A G S S A S A A ",
"jXgXgXhXhXhXhXhXhXhXaXhX6XaXhXhXgXzX..& - = i 5.1.` H D D H H ;.;.1._ D 0 r - & & & & O 9 M 9.q.C.C.&X&X+XqXQ.S P P G G G P P P ",
"xXzXzXzXgXgXgXfXhXhXhXhXhXhXhXgXjXvX3Xy % = 0 _ Y.] H i q D D H ;._ D r 1 - = & & & & 7 m M q.q.V.V.P.L.F.>XAXqXI P P G P P P A ",
"xXxXxXxXxXzXzXzXzXgXgXgXzXhXzXzXxXvXdXJ X = 0 J U.8.5._ a H H =.5._ q 1 > - = - - & < 9 m +.q.q.w.q.V.H.J.jXNXDXpXQ.P P P P P S ",
"zXzXxXxXcXxXxXzXzXzXxXgXgXzXgXxXxXvXbX>.X & > D -.=.5.-.^ =.=.=.^ D q = = = > - < % 3 s ' $.q.w.M.q.B.w.1XlXMXMXDXDXQ.L S S S : ",
"gXzXzXzXxXxXxXxXxXxXxXzXzXgXhXaXsXgXNX8Xe - - r D D D D F F D D 0 0 > = = = - - & < 9 m O.e.e.w.q.+.+.F.dXmXmXMXMXMXMXtX<.: $ , ",
"gXgXzXzXzXxXzXxXxXxXxXzXzXhX4X<X1X5XcXgX..= - - = q q q 0 0 q > = % = = - > - - 2 9 v ' $.$.e.&.e.+.2.yXpXpXtXtXlXlXlXDXDXtX<.> ",
"aXhXgXgXgXjXkXkXzXxXxXzXkXhX<XoXOX2XzXNX>X< & - 0 = = 0 % > > 0 > 0 0 = - ; 1 1 2 p m $.a.r.r.e.$.O.:XpXrXpXrXyXtXpXlXlXlXNXDXeX",
"eXeXhXgXhXfXgXfXgXfXfXfXhX4X$Xh.j.%X6XfXeXW.4 ; % > % % = ; = > = = > = = 1 1 3 7 z ' $.2.4.w.4.#.A.pXiXiXiXwXwXrXpXlXmXMXMXcXNX",
"5X6XaX5X<XOXOXoXoXoXc.c.c.j.K 6 e W ..o. .| l 0 $ % % = & ; % ; % % 1 1 1 2 7 9 s ~ ] 2.a.r.a.2.5.yXiXuXuXuXwXwXwXwXrXyXrXtXMXlX",
"7X7X5X@Xj + O O X   X . . . . , X . . . o   W.yXQ./ r = & & & = 1 1 5 8 i 9 s H ~ ] 2.4.r.a.2.2.,XiXiXiXuX0XwXwXwXwX0X0X0XrXtXtX",
"6X7X2Xx.O     X X O X X X X X ; ; > : t J :XMXlXMXMX}.1._ T i i h i H v m m m ~ 2.a.u.u.u.u.2.*XpXiXiXuXuXuXwXwXwXwX0X0X0XrXtXmX"
};
