/* XPM */
static char *bW8rJTI4MSUyOSslMjgxJTI5[] = {
/* columns rows colors chars-per-pixel */
"64 64 247 2 ",
"   c #0D1115",
".  c #15191C",
"X  c #1A1C1C",
"o  c #151718",
"O  c #0D1211",
"+  c #1E201F",
"@  c #22251F",
"#  c #1B1E22",
"$  c #151A21",
"%  c #181D30",
"&  c #1E2125",
"*  c #1D2329",
"=  c #222324",
"-  c #22252A",
";  c #25292C",
":  c #2A2C2C",
">  c #282B25",
",  c #2D322D",
"<  c #2C3027",
"1  c #32342C",
"2  c #363A2D",
"3  c #252B32",
"4  c #2A2D32",
"5  c #252A35",
"6  c #2D3235",
"7  c #2D333B",
"8  c #2F383D",
"9  c #293334",
"0  c #323435",
"q  c #343A35",
"w  c #3A3C35",
"e  c #32353A",
"r  c #343A3C",
"t  c #3A3C3C",
"y  c #393635",
"u  c #302F34",
"i  c #201F24",
"p  c #423E3C",
"a  c #3C4433",
"s  c #3C423C",
"d  c #3A453B",
"f  c #3E412C",
"g  c #424534",
"h  c #42443C",
"j  c #444B3C",
"k  c #4A4C39",
"l  c #4E533D",
"z  c #53573D",
"x  c #61633B",
"c  c #353B42",
"v  c #3A3D42",
"b  c #343946",
"n  c #2D3445",
"m  c #413F43",
"M  c #3C4244",
"N  c #3C444A",
"B  c #3C4646",
"V  c #3C4654",
"C  c #3F554E",
"Z  c #434444",
"A  c #434B44",
"S  c #44454B",
"D  c #444B4B",
"F  c #4A4C4B",
"G  c #494844",
"H  c #4B5244",
"J  c #45534D",
"K  c #4C544A",
"L  c #485849",
"P  c #535C4B",
"I  c #545946",
"U  c #444A52",
"Y  c #4C4D54",
"T  c #444958",
"R  c #514F55",
"E  c #4D5353",
"W  c #455C54",
"Q  c #495E55",
"!  c #485859",
"~  c #525255",
"^  c #535C52",
"/  c #5A5A5D",
"(  c #565658",
")  c #514D4C",
"_  c #5A644D",
"`  c #58634B",
"'  c #4C6156",
"]  c #4B625A",
"[  c #5C6552",
"{  c #5D6A54",
"}  c #5C6C5B",
"|  c #556659",
" . c #5E735E",
".. c #656B4D",
"X. c #666B45",
"o. c #6E744A",
"O. c #74794C",
"+. c #636C54",
"@. c #626D5A",
"#. c #666B55",
"$. c #6C7A5C",
"%. c #687359",
"&. c #737B5A",
"*. c #5D5C63",
"=. c #565A67",
"-. c #4A5367",
";. c #605D64",
":. c #6B5974",
">. c #596666",
",. c #5C6478",
"<. c #5A7160",
"1. c #636265",
"2. c #64646B",
"3. c #686A6A",
"4. c #677863",
"5. c #727D63",
"6. c #737E69",
"7. c #6C6C73",
"8. c #666A79",
"9. c #736D7A",
"0. c #6E737C",
"q. c #74737B",
"w. c #7A757C",
"e. c #76787A",
"r. c #716C6F",
"t. c #625E5F",
"y. c #84617F",
"u. c #7A845C",
"i. c #798259",
"p. c #7C834F",
"a. c #748364",
"s. c #79856A",
"d. c #788868",
"f. c #778975",
"g. c #7B9378",
"h. c #6D826B",
"j. c #818959",
"k. c #828B65",
"l. c #869779",
"z. c #929E7B",
"x. c #838F72",
"c. c #92A27D",
"v. c #6C7488",
"b. c #757482",
"n. c #7C7A83",
"m. c #7C7C8B",
"M. c #787788",
"N. c #7A7C93",
"B. c #6B6C82",
"V. c #7E5F81",
"C. c #8C5E88",
"Z. c #896489",
"A. c #827D84",
"S. c #837D8B",
"D. c #807385",
"F. c #867C95",
"G. c #957996",
"H. c #916689",
"J. c #A3789E",
"K. c #A77AA3",
"L. c #7E8188",
"P. c #7D8499",
"I. c #7C86A4",
"U. c #84838C",
"Y. c #89868C",
"T. c #889D84",
"R. c #838494",
"E. c #8C8B93",
"W. c #8C8B9B",
"Q. c #878698",
"!. c #938D9C",
"~. c #93889A",
"^. c #94939C",
"/. c #979799",
"(. c #919982",
"). c #8BA288",
"_. c #95A688",
"`. c #9AB295",
"'. c #A3B696",
"]. c #A3AE90",
"[. c #878BA4",
"{. c #928DA3",
"}. c #9988A5",
"|. c #8C92A5",
" X c #9493A3",
".X c #9B95A4",
"XX c #9C9BA5",
"oX c #9594AA",
"OX c #9B95AB",
"+X c #969BAC",
"@X c #9C9CAC",
"#X c #969BA3",
"$X c #9C9DB1",
"%X c #949CB2",
"&X c #8D95B3",
"*X c #A29CAB",
"=X c #A49CAA",
"-X c #A29DB2",
";X c #AA9AB8",
":X c #A58BAB",
">X c #9EA2AE",
",X c #9DA2B7",
"<X c #A3A2AC",
"1X c #A9A5AD",
"2X c #A4A3B3",
"3X c #AAA5B4",
"4X c #A6AAB6",
"5X c #ABAAB5",
"6X c #A4A4BB",
"7X c #AAA4BB",
"8X c #A5AABC",
"9X c #ABACBC",
"0X c #B1ADBD",
"qX c #AEB1BD",
"wX c #B4B1BE",
"eX c #AEBCA5",
"rX c #A8C3A4",
"tX c #B8C8AA",
"yX c #BBD1B3",
"uX c #ABC39F",
"iX c #C2D3BC",
"pX c #ABACC2",
"aX c #A9A7C2",
"sX c #B2ADC5",
"dX c #B3ADCB",
"fX c #B0A7C4",
"gX c #ADB1C2",
"hX c #B2B2C3",
"jX c #B5B2CA",
"kX c #BAB7D2",
"lX c #9EA4C6",
"zX c #D3DCC7",
"xX c #C9DCC4",
"cX c #C9E4C6",
"vX c #D6E8CC",
"bX c #DAEAD5",
"nX c #DDF1DB",
"mX c #E3ECD8",
"MX c #E6F3DD",
"NX c #E7F3E3",
"BX c #F4FAEB",
"VX c #FCFEF5",
"CX c #FDFEFA",
"ZX c #FEFFFD",
"AX c #FEFFFC",
"SX c #F6FDF3",
"DX c #DEEBE1",
/* pixels */
"CXCXZXZXZXZXZXCXZXZXZXZXZXZXZXZXVXVXBX'.>.4.f.f.f.h.g.`.(.l.5.%. .{ { %.u.g.c.z.l.).T.T.h.<.] ] ] ] ] ] W ] W W W W W W C C C C ",
"CXCXCXCXCXCXSXZXZXZXZXZXZXZXZXZXZXCXVXBXT.f.f.l.).l.g.h.5.4.{ { { H { 4.a.d.d.d.l.).).).f.<.<.] ] ] ] ] ] ] ] W W W -.W W W C C ",
"yXiXxXzXbXSXSXSXZXCXCXCXZXCXZXCXCXCXVXBX'.g.l.).x.h.` ' %.} ^ 4.%.} @.%.{ { u.a.g.T.).T.f.<.<.] ] ] ] -.W W ] W W W W W W C W C ",
">.4.4.6.h.T.vXNXVXCXCXCXCXCXCXCXCXVXVXBX].T.(.d.$.` P [ [ ' d H h.%.H ` P a L { a.l.g.T.f.4.<.<.<.] ] ] ] ] W ' W W W W W W W W ",
"<.<.h.h.h.h.h.h.).`.uXyXiXzXvXzXmXmXbXiX_.c.x.$.5.[ ^ ^ ^ L d ` 4.` d H H d a j ` $.f.d.a.h.$.4.] ] ] ] ] ] ' ' W ] W W W W W W ",
"f.g.g.L.g.h.g.g.g.d.d.h.5.h.f.T.`._.].'._.l.&.5.s.%.K J J s A } 4.} @.@. .j l P @.+...$.$.d.d.a.4.<. .| } ] ' ' W W ] ] W W W C ",
"`.`.rXrXrXrXrXrXuX'.rX).).g.T.)._.'.]._.x.#.` _ 4.@.^ d 9 9 d | ^ @.6.4.4.H L %.%.4.` ` +.$.d.d.d.a.$. .} ' ' ' ] ] W W W W W C ",
"iXcXcXvXcXcXcXcXcXcXyXrX`.).`.`.'._.x.%.I H d A K H s 9 J E L A h K @.f.f.Q H | %.{ { ` { a.&.$.a.a.a.d.h. .| ' ] ] ] W ] W W W ",
"bXnXnXNXMXnXnXbXcXvXyXyXyX'.'.'.z.d.{ d D D 9 8 a d B d D J D B B K } x.f.| F K | @.^ P L { $.$.$.&.&.u.d.$.{ { ] ] ' ' ' W W C ",
"DXNXNXNXNXnXbXvXnXcXcXyXuX`.`.c.a.I d s B r 3 d J | ] B ; d s r U >.>.3.| Q K A ^ @.4.@.A a ` $...+.&.u.i.a. . .] ' ' ' W W W W ",
"CXSXCXCXSXbXiXiXyXyXyXuX_._.c.p.P B 9 9 8 9 9 B B C B 9 3 d 8 S 3.r.e.6.E A ^ A d ^ >.4.` L P +.{ %._ X.i.a.d.%.h. .' ' W ' W L ",
"ZXZXZXCXCXVXmXnXnXyX`.c.c.c.a.` W M d d : 9 9 V M M M 8 5 M ! n.E.e.U.^.0.M B J B B H K A P [ { ` ` { l ` a.d.a. .{ { ] ' ' W C ",
"ZXZXZXZXCXZXCXCXBXmXz.z.c...` L B 8 8 3 7 9 B =.! N N B 8 N L.^././.(./.^.e.Q r q K } K K H P { { j | ` z ..u.u.i.a.{  .] ' W C ",
"ZXZXZXZXZXZXZXCXVXvXuXz.o.P L W B 9 * 9 N 7 ! T n 5 b 9 8 0.>X#X<X<XXXXX>X/.E.r.F Z F A K K [ H @.` P P l ` o.i.i.i.a.' ' | W L ",
"ZXZXZXZXZXZXCXVXBXvXtXk._ [ E N n 9 3 N N 7 c 7 b 7 5 b L.4X4X4X1X5X1X<X<X/././.L.r.K s J K K a l | H P z { ` X.p.u.a.{ { ' C W ",
"ZXZXZXZXCXVXVXBXmXiX].%.[ E U r M 8 n N c 3 ; 5 T =.b.<XgXqX4X4X5X5X5X1X>X<X<X/./.w.*.Z D t t B w K l G P ` ..X.p.i.p.i.h.h.L L ",
"ZXZXCXSXmXbXvXvX].x...k | D d 8 b 8 M ] N 5 5 >.E.>XhXjXhXqXqX8X9XqX9X4X>X4X4X>X<XE.1.;.) A ; r B A H H [ _ ..O.o.o.O.u.$.$. .L ",
"ZXZXCXSXmXmXzXc.&.o.k d B t 3 b n 3 b N b 9 S {.1XqXhXjXhXhXgX8X4X9X9X9X4XqX4X4X2XY.( f.( D : ; A d A P P ` %.....X.o.O.u.%.4.{ ",
"ZXZXZXZXCXVXBX].%.I d B s ; 8 C 9 * 9 9 e e 7.*XqXqXhXhXhXgXgXqXqXgX4X8X4XqX8X>X>X^.7.3.1.( v 3 d q s K I I { z z o.X.o.i.u.$.` ",
"ZXZXZXZXCXCXMXz.` l s D q 3 M b 8 3 9 3 4 U W.<X5XqXqXgXhXgXgXgXpXgXqX4XqX4X4X4X>X#X^.e./ >.r 7 c t 6 1 G K [ ` z X.X.o.p.i.u.{ ",
"ZXZXCXCXZXCXzXy.H a C B M 9 b N b * c S b 8.#X1XqXqXqXqXgXqXpXpXpX8X8X8XpX8X4X4X>XXX/.^.1.Y Z e c 9 d > & a P P l ` ` X.o.u.d.i.",
"ZXZXCXCXVXVXzX` , d N n 9 3 8 b 3 * N V b U.>X>X,X,X>X,X,X+XlXpXgX8XgX8XpXgXgXqX4X>X/./.r.F D 7 3 ; 9 q ; d A I I _ X.X.o.p.j.u.",
"CXZXCXSXBXBXa.k a 8 b M n 9 9 9 3 9 v 3 b L.e.8.=.-.B.L.P.P.&XaX8XlX,X&X,X,X|.|.|.#X#X/.f.S F e 7 N 9 b * 8 B A g [ %.z o.p.j.j.",
"SXNXBXzXtXs.k H B 9 B N 8 8 8 3 9 M 9 ; n N N V V V -.,.P.v.I.,X&X,XI.P.I.v.-.V C =.0.f.L.F r c 3 7 N ! 9 8 d 9 a P $.X.X.O.p.p.",
"DXbXzX(.5.P H ( B 9 B B 9 9 7 ; N N 8 5 n V =.,.,.,.8.v.v.N.[.&XP.I.P.v.v.,.V V V V N N V >.v c * % N V B & ; 7 s I #.#.O.O.O.y.",
"bXiX].f.+.P Z K 6 , e M 9 : - - N V M n B.[.,XlX%XI.P.P.P.W.|.%X&X|.I.L.v.B.,.v.,.v.,.,.! b S v 3 & 5 * r * 7 D d , H ..&.X.o.p.",
"wX`.(.6._ K E t , : 6 r 7 6 ; ; 9 N n ,.OX6X;X%XoXR.e.L.E.^.>X8X,X,X|.E.L.v.v.P. X%X,XoXP.,.8 e * * 3 $ ; , r A w f a H o.x x O.",
"_._.x.@.I H K r e 9 8 r 7 8 4 3 3 3 ! W.{.Q.[.{.R.M.b.q.w.^.9XwXqX8X>XP.0.0.L.P.|.{.[.+X,X[.! 4 8 * 9 8 8 9 ; > 2 H j j z x x o.",
"_.s.5.I a w B q s 8 M c M N v 7 ; e b.E.D.9.=.b V b -.v.F.D.1X0XqX2XE.7.q.Q.N.b.N.Q.Q.N.W.{.b.U 9 * 3 b N 9 9 ; q h k 2 l I x ..",
"x.#.$.g 1 2 q B N M c r ! U D 6 - v m.R.:.v =.b % n F.M.n.w./.5XhX3Xe.:.m.B.N.-.5 % T 8.9.R.7.U * 3 5 9 V v 9 w r w h 2 f l I ..",
"f.#.#.g < 1 2 r r r e v U r e 4 # S E.~.q.;.M.N.,.B.Q.M.9.y.<X3XwX3Xq.7.B.N.lXN.n n T b R m.=.S 3 8 5 5 v 3 e M M q w j g l g I ",
"s.%.#.^ 2 < q q 8 7 v v r 6 e 4 ; 2..X*XXX.X{.oXoXF.N.M.~.~.=X3XwX3XD.9.M.N.&X&XN.N.F.8.=.q.( E 9 8 n n 7 3 ; 6 v Z h k k I g g ",
"5.%.#.^ w , r M c e v r 4 u 7 u b U.@X<X-X;X$XoXoX{.!.OX.X.X=X0XwX1XY.Y.S.m.Q.[.W.W.{.W.+X X7.Y b e 5 7 c N 4 ; e B F a a H z p ",
"%.#.^ s w q v R M r e 7 v b u 4 Y ^.XX-X6X-X-X-X-X-X;X=X^.=X;X0XwX1X/.~.=XOX{.{.{. XOX2X4X*Xb.( 0 - 5 u 6 M 9 : e t t w 0 j k g ",
"#.t.K K M q r B v v c e v v u u 2. X#X-X7X;X;X;X;X7X=X.X=X3XsXwXwXeX/.(. X6X6X6X2X-X2X3X3XXXS.R 0 ; * ; & + > , - 8 q , < g g g ",
"k k Z Z M 0 r r r r 6 6 6 3 c u 2.W.OX6X7XaXfXfXaX7X3X=X<X3X0XhXhXwX/./.XX2X7XfXfX9X7X5X6X XU.E 4 3 ; # & & 6 w - ; t r < g g 2 ",
"k p 2 w r c t v e r : = 4 - 4 c *.W.*XaXsXsXdXdXdXdX=X!.=X5X0XhXhX0X/.E.^.7XsXdXdXdXsXsX6XQ.q.Y 7 v 5 3 4 6 e 9 - - 8 r q G h < ",
"I g < < M F B e e 6 0 : 4 4 - 4 *.!.3XjXjXkXkXfXfX;X:X*X3XwXfXjXjX5X1X/.E.OXdXjXkXdXdXpX3XY.7.Y e e b U v e c e ; 9 7 e v v s A ",
"I g p 1 t s r e 7 0 7 r v b 4 : / XX2XdXjXjXdX;X-X=X/.3X^.=XjXkXhX3X!./.E.F.-XfXdXdXdXjX2XE.8.R ; - u c b c N V 9 ; 8 r r 6 h K ",
"x k h j , 0 q 6 M D r t m v u = *. X-X0XsXdX-X}.-X=X}.S.D.Q.-X6XoXq.*.9.w.S.{.oXaXaXpXgX>XE.*.Y i # % 4 8 3 7 9 ; r 6 e e ; > 1 ",
"I k h h : M e ; M v r r v v 4 i =..X2X3X0X-XW.OX-X*X:X!..X.X{.Q.9.;.8.b.S.{.6XOX{.aXaX6X.Xq.*.t # # * b ; 4 ; * * : e r r : : , ",
"k l p p t F 6 6 m r 4 4 4 e 4 i *.^.*X*X3X~.}.@X.X!.U.W.OX3X{.M.b.R.~.Q.m.Q.OX6X{.OX6XOXW.7.~ 4 - # * 4 3 = 9 - * ; 9 c e e q a ",
"_ I p 1 t D 0 q r v ; - - : : i 2.^.#X<X=XS.S.M.n.m.U.W.{.OX$X$XoXW.F.M.B.0.N.W.{.Q.-X XS.1.D m - * c 7 r 9 3 r 8 N M M q w w w ",
"k ) p 1 s 0 4 : 4 r 4 = ; 4 : i 2./..X<XXXU.b.w.E..X*XOX-XfXdXfX6XOXoX XW.S.M.B.9.M.@X Xn.7.S u - * 6 n r B r c d 8 c r t q w w ",
"w h w a q u : : e 4 4 = 4 v u i *.E.^.=X=X.XXXY.D.G.G.G.K.:X;X;X:X}.G.}.}.Q.b.M.W.m.*X Xq.2.v e - # # * ; v R e : 9 4 & , s d A ",
"G h t 0 > u e 4 e r v 4 - S e i / U./.XX5X<X3X=XH.9.y.y.Z.C.C.C.V.Z.V.:.:.:.b..X<X.X1XR.q./ S 4 # - # # # # c r & > & & - ; 0 s ",
") h : : : 4 e r 0 v v 4 - t : = E L.!.^.<X5X3X2X=X~.H.H.C.C.C.C.C.C.H.Z.V.G.$X6X@X5XXXw.1.Z u - - # % - ; . e A + : ; & & & > q ",
"F q = : 0 0 0 e 6 4 4 - - r 0 X t q.E..XXX3X5X3X3X3X:XJ.K.K.K.J.J.J.G.G.[.OX2X$X<X3XE.9.Z 0 u 7 * 4 7 - - # 6 7 : w : & + > ; 4 ",
"Z w = = 4 e y t 4 4 4 X 4 S 0 # 4 2.U.!./.*X3X5X5X3X-X:X}.:X:XK.G.G.F.!. X+X%X>X@X.XD.;.y u v m 5 4 u 5 * 3 4 = 6 6 6 ; ; & 4 6 ",
"v q > > 0 e 0 u b t > X : u - X . R m.E./.XX<X5X5X3X*X2X$X}.}.{.G.~.{.oX+X>X+X+X^.U.9.R t y b n 5 5 % * 5 - - & t r e ; = & e M ",
"w t : : : 0 - : e r = i i : = i o - 7.U.E.^.XX5X5X5X2X*X X{.S.N.Q.[.|.oX$X+X+X XU.e.;.m e t v u 5 3 ; - 5 u - e U c 4 - & ; 6 8 ",
"w t y p : > 0 y y ; i i i = = = X   7 q.U.E./.5X9X9X0X6XOX{.N.N.[.oX$X@X,X+X#XW.n.7.R y u - - u 3 5 5 * 7 b # 4 c 4 4 ; & 0 ; = ",
"v w y 1 : = : m r : : : 0 - - - # #   v n.Y./.1X5XwXwXsXpXaX;XaX6X8X8X6X,X>X|.L.q.*.t : > i i - u n 4 ; 4 3 # $ - ; - 4 : t > & ",
"w 0 < 1 : = : e v e : i v u - i = = o 4 >.w.U./.5XqXhX9XaXaX6X8XaXaXaX8X,X@XQ.b.2.F > > : - - 4 # 4 5 4 # - # X - # = - 0 t > @ ",
"0 > @ > 1 u u r r u : i = ; X i i i   u *.>.e.E.<X5XqXhXpX6X;X6X8X8X8X2X+XR.8.;.) u = < - : u b 5 5 - r * # # - 9 & # - 9 t q : ",
"w < 1 w 1 y 0 e u e u = : > X o . .   e e.;./ 9.E.<X5XwXpX8X,XaX6X8X,X+XR.:.R m u > > y m u : 5 7 4 n c r - 3 5 7 ; # 4 - = r w ",
"g < 1 p > = u 0 : u w - r y X o # .   c m.q.( / 9./.<X6X6X6XfXaX6X2X XR.2.Y m u > : p h G u 4 e 4 3 9 7 c e 4 4 ; & # # i # = 4 ",
"l < o @ > = r S = i : u e 4 i X . .   c U.U.2./ / 7.Y.!.!.oXoX$X XW.R.7.S m t : < p p ) G : u v e - # & # 4 4 u * & # - = # 4 - ",
"p k g w @ @ 0 m i i u 0 y : X o   .   b L.E.b.1.1.( *.7.q.U.S.S.b.7.;.S p y 1 y p ) ( #.) u = - 4 - # % - - 3 4 & # * 5 # 5 v u ",
"> #.#.> X : v u + @ : y 0 > i X o o   r m.^.E.7.3.3.*.R ( *.;.( R F S m p y p m ( ;.r.r./ m : : v e r 7 - # - u r 4 3 - # # u n ",
"o z G < > i 4 - X X u : = = @ + . .   e M.^.E.q.9.e.r.3.;.~ ) G S G G G p G ( ;.r.y.y.w.R m m - 5 u n e # . # 5 r e e > # # 4 5 ",
"O z d > q - - 4 o o = = . : < X . o   7 b. X#Xn.e.U.e.q.r.3./ / ( ( ~ ) ~ 1.y.y.A.A.l.e./ m u - 4 # - 4 $ . # * - 4 ; - # & e 0 ",
"a g.P 0 4 = 0 4 + o X - 0 = X o o .   e e.!..XU.e.Y.Y.U.w.n.e.q.9.r.3.r.y.Y.(.E.Y.Y.A.w.;.m u - : ; i - $ $ # # - e 4 - # i 4 r ",
").f., q - # 4 : + o i : 4 = X o X X   6 b.W.{.Q.x.E.E.E.E.E.E.U.S.S.L.Y.E.!.^./.~.Y.A.w.:.m u u u - # $ . % - 3 u c 4 i # # 4 v "
};
