/* XPM */
static char *cmVhbGFiZA__[] = {
/* columns rows colors chars-per-pixel */
"64 64 255 2 ",
"   c #050E0C",
".  c #0B1314",
"X  c #0B171A",
"o  c #131C1C",
"O  c #111A1B",
"+  c #0C150E",
"@  c #17241D",
"#  c #0D1923",
"$  c #0C1A28",
"%  c #121C24",
"&  c #121E2A",
"*  c #1A1C28",
"=  c #15222D",
"-  c #1C2A2C",
";  c #1A2626",
":  c #152434",
">  c #192633",
",  c #1C2A34",
"<  c #1B2C3C",
"1  c #16283A",
"2  c #1F313C",
"3  c #1C3431",
"4  c #122731",
"5  c #222D2C",
"6  c #232B26",
"7  c #25322B",
"8  c #2A362C",
"9  c #232C34",
"0  c #232D3B",
"q  c #262A37",
"w  c #243333",
"e  c #2B3534",
"r  c #2C3A35",
"t  c #24333C",
"y  c #2C3C3C",
"u  c #2A353C",
"i  c #323D3C",
"p  c #323A37",
"a  c #303829",
"s  c #222A13",
"d  c #35423C",
"f  c #3A443B",
"g  c #3B4A3D",
"h  c #354337",
"j  c #33402F",
"k  c #454C3A",
"l  c #585636",
"z  c #525432",
"x  c #686737",
"c  c #70713C",
"v  c #616139",
"b  c #1C2D41",
"n  c #1F3143",
"m  c #233442",
"M  c #2B3B42",
"N  c #2B3846",
"B  c #363B46",
"V  c #303A4B",
"C  c #443D4B",
"Z  c #2D4244",
"A  c #324343",
"S  c #394542",
"D  c #3D4C43",
"F  c #3B434B",
"G  c #374849",
"H  c #3C514B",
"J  c #394653",
"K  c #3C5554",
"L  c #3F5562",
"P  c #444B48",
"I  c #425146",
"U  c #45544B",
"Y  c #4A554B",
"T  c #4A594D",
"R  c #485848",
"E  c #545A48",
"W  c #474A57",
"Q  c #4B5C52",
"!  c #475756",
"~  c #565858",
"^  c #544C5B",
"/  c #6E564A",
"(  c #58664C",
")  c #4C665B",
"_  c #4E695D",
"`  c #4B6356",
"'  c #536354",
"]  c #52695B",
"[  c #596658",
"{  c #587059",
"}  c #646648",
"|  c #757A46",
" . c #666A58",
".. c #67735B",
"X. c #76785A",
"o. c #726C4E",
"O. c #4A5864",
"+. c #585865",
"@. c #4E4D61",
"#. c #655C6A",
"$. c #7C5977",
"%. c #586966",
"&. c #5B7569",
"*. c #5E796C",
"=. c #597266",
"-. c #5E6575",
";. c #55716E",
":. c #666868",
">. c #72686C",
",. c #6D7364",
"<. c #637B6D",
"1. c #6B7C6C",
"2. c #667665",
"3. c #767A68",
"4. c #646472",
"5. c #696977",
"6. c #766A77",
"7. c #647C72",
"8. c #6C7577",
"9. c #797779",
"0. c #835A78",
"q. c #8C7073",
"w. c #7B8352",
"e. c #6B826E",
"r. c #7A8567",
"t. c #6A8375",
"y. c #788775",
"u. c #7C9279",
"i. c #84815E",
"p. c #878667",
"a. c #928A6A",
"s. c #878678",
"d. c #938875",
"f. c #879679",
"g. c #999477",
"h. c #92926D",
"j. c #A39C7C",
"k. c #A6A27B",
"l. c #9FA17A",
"z. c #557595",
"x. c #756E82",
"c. c #797985",
"v. c #73758A",
"b. c #455BB3",
"n. c #5471B0",
"m. c #7078AF",
"M. c #42569F",
"N. c #3E57B4",
"B. c #8B6886",
"V. c #837B8A",
"C. c #887888",
"Z. c #8A7C93",
"A. c #947996",
"S. c #94748A",
"D. c #A5799C",
"F. c #6B8A87",
"G. c #728C85",
"H. c #799588",
"J. c #7B9A96",
"K. c #6B8897",
"L. c #5E82AD",
"P. c #668AA6",
"I. c #7090B2",
"U. c #7DA1BA",
"Y. c #7092C6",
"T. c #6E92C2",
"R. c #8C828B",
"E. c #898688",
"W. c #948888",
"Q. c #899A86",
"!. c #9A978A",
"~. c #8A8694",
"^. c #9B8B94",
"/. c #9D8C9B",
"(. c #958695",
"). c #9B9596",
"_. c #899D91",
"`. c #A29A8C",
"'. c #A49A85",
"]. c #A28D9A",
"[. c #A49B92",
"{. c #A3949C",
"}. c #A69A9B",
"|. c #A99D9C",
" X c #A59796",
".X c #A78788",
"XX c #95A58D",
"oX c #88A499",
"OX c #97A996",
"+X c #91A990",
"@X c #AAA488",
"#X c #B1AB8B",
"$X c #A9A597",
"%X c #AAB49C",
"&X c #B6B295",
"*X c #9C8DA2",
"=X c #9B96A6",
"-X c #8B91B3",
";X c #A38EA1",
":X c #A595A3",
">X c #A69AA4",
",X c #AA9CA3",
"<X c #A69AAA",
"1X c #AB9BAB",
"2X c #A895A8",
"3X c #AA9DB3",
"4X c #A79BB3",
"5X c #B18EB1",
"6X c #88A8A5",
"7X c #9AB7A8",
"8X c #87A8B8",
"9X c #95B8B8",
"0X c #97ABAC",
"qX c #ACA3A2",
"wX c #A8A6A7",
"eX c #B3A6AA",
"rX c #A6BAA7",
"tX c #B2BDAA",
"yX c #ADA2B7",
"uX c #B2A4B7",
"iX c #ADB8BA",
"pX c #A5C2AD",
"aX c #A8C5B3",
"sX c #B7CAB9",
"dX c #BBD4BC",
"fX c #B5C7AC",
"gX c #C4D0BB",
"hX c #88ABC4",
"jX c #96B7C5",
"kX c #92AFC8",
"lX c #A8B8C9",
"zX c #B8AEC4",
"xX c #8B9FC0",
"cX c #9CC1CB",
"vX c #B8CACA",
"bX c #AACCD4",
"nX c #B7D7D8",
"mX c #B3CFCA",
"MX c #BEE0E1",
"NX c #C6DBC5",
"BX c #C9D2CC",
"VX c #C9E2CB",
"CX c #D5E5CC",
"ZX c #D9E9D7",
"AX c #CFE7DB",
"SX c #E2EDDB",
"DX c #E4F2DC",
"FX c #C5E5E4",
"GX c #EAF5E5",
"HX c #F6FDEB",
"JX c #FCFFF4",
"KX c #FDFFF9",
"LX c #FDFFFA",
"PX c #F7FFF3",
"IX c #E7EEE4",
/* pixels */
"f.Q.OXrXfXfXgXNXCXDXDXDXGXHXHXHXPXPXJXJXJXJXLXJXIXZXsXy.%.' ] ] <.%.2.7.2.<.OXvXSXLXLXLXLXLXLXLXKXtX:.&.&.e.;.e._ e.e.;.e.e.;.;.",
"( ( ( ( ( ....r.u.h.XX$XXXl.XX%X%XpXfXsXIXJXCX%X:.' ' P I I U T I g D Y Q T P P %.OXIXLXLXLXLXKXJXSX1.2.;.e.e.;.;.e.;.;.;.;.e.&.",
"r.p.f.XX$X%XgXBXSXGXHXJXGXOX1.e.y.y.Q.fXrXf.~ g I Q Q P H T ` Q T R D Y R D Q T Y ' [ rXIXJXKXKXJXZX2.e.;.e.e.e.e._ t.t.;.e.;._ ",
"GXHXHXHXJXJXJXKXJXJXJXKXJXDXu.e.e.u.%Xy.R g f g D f D S f T I I D Q ] [ ] D T [ Q Q Q k 6.NXKXJXGXXX&.e.e.e.;.;.;.e.e._ e.;.;.e.",
"JXKXKXKXKXKXKXKXKXLXLXKXKXGXe.{ e.u.` 8 r g H Y H I Q Q d U D T Q I ` ~ ] Q Y R d D Q I g ' Q.rXQ.e.e.*.t.*.e.e.*.*.&.&._ &.e._ ",
"KXKXJXJXKXKXJXJXKXKXKXJXJXtX' { f.' 8 h r D D T P H D d e A S D Q Q T Q U U Q I T U g Q ' k k [ u.e.e.e.*.t.t.J.6XoXJ.t.&.&.&.&.",
"JXJXJXJXJXJXJXJXJXHXDXCX%X..e.XX] h d r y D S A w u w y w r y e e S I Y D d T T Q U D D I R R g [ y.e.e.F.J.U.9X9X9X9XJ.t.e.;.&.",
"HXIXSXBXgXtX@XXXg.r.w.{ ( e.%Xe.j h y u r d r w i M G A y y d w 5 w 8 r D d A D U T Q d D I I Y k =.t.G.J.J.6XjXcX9X9XU.J.F._ _ ",
"e...{ { { p.gXBXNXgXgXfXtXgX%XD f d d i y u u d D F G i F D H d i i p e i S p d S f Q D i f g Y ' R 8.oXU.8X-XxXhXcXkX8X8XJ.v._ ",
"R R ( ..u.CXJXKXJXJXJXJXJXtXR g h e d i i i u G J M t t 9 9 i Z S U P h Y Y i p a 5 p D P d g Q ' D T 6X0XxXI.m.K.P.8XkXxX6XK.;.",
"{ ` ) { f.GXLXPXJXJXKXKXPX2.p y e h Y k W Y F ! A M M M J F G B S W :.1.s.y.3.,. .[ d e B i f Q g R g 7.lXkX-XZ.Z.Z.4XkXlX8XJ.K.",
"{ ` ] ] e.VXPXJXKXKXKXKXCXE p f Y %.6.:.,.+.+.W W W O.+.5.-.+.4.c.R.Q.$X$X%X&X$X$X$X9.k e i S Q g k I W 0XlX2X/.(.^.yXiXlX9XU.K.",
"] _ { ) ) e.pXCXSXDXDXJXOXa f 2.s.s.E.E.W.9.5.-.-.-.v.G.G.c.V.).).wXwX$XqX&X&X&X&X&X@X,.i e i S Y g U D 9.BXuXeXeXeXzXzXlXlX-XP.",
"` ` ] ` ) R k ( ( ..r.Q.~ 6 E E.f.!.). X)._.~.~.~.~.=X=X=X=X:X,XwXqXqX$X$X$X$X#X&X&X#Xg.Y u i S S d f d %.BXvXsXBXvXBXvXvXjX8XP.",
") ) ] ] _ ' ] ( [ [ { 2.h 8 3.!.!.).}.}.wXwXwX<X<X<X3X<X>X<X<X{.>X,X,X|.|.$X@X@X#X&X#Xk.3.i e e 5 5 r p I wXvXBXBXBXBXBXlXkXU.I.",
"e.e.e.e.e.e.e.t.t.e.t.2.8 D !.).$X).}.qX,X,X<X>X>X>X<X:X>X1X:X,X,X>X|.|.}.[.$X@X#X#X#X@Xs.P 5 9 9 6 ; 8 r E.vXvXFXFXMXvXjXhXI.P.",
"u.H.u.f.f.J.+X+X_.Q.Q.R 6 :.).`.[.$X|.$X,X>X,X:X:X1X1X<X<X2X:X:X2X,X}. X X X|.@X#X#X#X@X!.>.e 6 5 ; ; 6 ; 2.vXnXFXAXnXcX9XU.I.n.",
"+X+X%XpXdXfXdXVXCXCXDX1.6 3.OX@X[.$X|.}.}.>X,X:X>X:X<X2X:X=X:X:X:X{.{. X.X X#X$X@X@X#X@Xj.3.P p 5 8 @ ; 7 H mXnXnXnXmXbXkXU.I.n.",
"fXfXdXdXCXSXDXHXLXLXLX,.7 y.$X`.[.}.|.}.{.}.}.2X2X:X;X2X:X:X:X/.{.{.|.|.$X$X$X#X#X#X#X@Xj.p.E i i i 8 ; 8 d aXMXnXmXbXnXbXU.I.n.",
"NXNXNXVXCXGXHXHXLXLXLX1.8 s.).!.).[. X X{.}.{.{.2X<X<X2X:X].].{. X}.|.qXqX$X$X$X$X@X@X@X'.d.,.E P D h 7 7 D jXbX9XcXbXMXnXcXI.L.",
"VXZXZXAXDXHXPXJXLXLXLX).f Q.!.[.!.). X X{.{.{.2X:X2X<X<X2X2X:X2X,X,X}.,X$X$X|.$X`.$X#X'.@Xj.3. .' R f p 7 %.nXjXP.cXnXMXMXbXU.L.",
"ZXZXGXIXGXGXHXPXLXPXLX_.P !.[.!.`. X X}.,X,X,X2X1X2X<X<X4X2X2X4X,X,X|.,XqX$X$X$X@X`.@Xj.j.j.j.X. .' Y D 7 7.FX9XI.hXnXFXMXbXU.L.",
"GXDXDXSXDXGXIXGXGXPXLXE.E !.).@X X X|.,X1X1X1X1X4X4X=X4X4X4X4X4X3X1X1X,X,XqXqX$X@X!.'.'.'.k.k.XX3...[ Y r F.MXjXU.cXnXFXFXnXhXP.",
"DXZXDXAXSXAXDXDXGXGXPX%X..$X!.!.).).,X1XeXyX1X3XzX3X3XzXzXyXyXyX4X<X<X*XR.G.9.W.[.'..X'.j.j.k.@Xf.3.[ I D iXbX8XU.cXbXMXFXnXcXP.",
"AXVXCXAXVXZXZXZXDXDXHXOXs.!.!.).W.~.).0X1X3X3X4XyXuXzXzXyX4X4X4X=X=Xv.5.O.+.O.+.s.OX'.g.j.'.'.j.r.E Y Y ~ 9X0X~.L.Y.kXbXnXbXcXT.",
"VXVXVXVXVXVXVXVXCXAXDXQ.s.!.!.9.~ +.-.x.K.*X/.*X=X<X4X4X*X*XZ.Z.v.5.@.V V V W +.:.q.!.!.'.'.g.d.,.,.!.,.:.wXzX2Xn.L.Y.hXkXcXU.I.",
"dXdXdXgXNXNXNXVXNXNXAXQ.f.).9.W F F B J W +.5.6.C./.*X*X(.V.4.#.J q > b J @.! @.~ ~ ,.s.s...( [ ' [  .X.[.}.0.q.I.M.b.n.Y.Y.Y.L.",
"dXdXsXdXaXdXdXdXNXNXCXrXQ.W. .P B N 0 , q 0 W ~ 6.(.;X*X(.q.5.+.W W O.v.I.~.V.G.8.>.~ 3.3.~ ( [ ,...3.g.d.q./ 0.-Xb.b.b.b.T.L.z.",
"aXaXaXaXaXaXdXaXvXNXNXtXs.9.~ %.8.8.-.-.+.+.#.:.>.C.:X:X(.C.6.>.4.4.-.x.4.+.+.+.#.>. .E.3.} o.i.@Xp.r.p.0.q.q.q.-Xn.b.N.n.L.L.n.",
"aXaXpXaXaXaXaXaXaXNXrX9.Y ~ 4.9.c.v.v.x.-.+.+.5.9.C./.{.C.C.6.>.#.O.-.V 9 q e q B Y ~ ~  .} X.j.l.h.q.X.q.j.q.0.m.T.n.b.T.L.L.K.",
"pXpXpXpXpXpXpXaXaXmXsXG.~ :.:. .^ C W N 0 0 +.4.6.>.R.C.>.>.>.6.6.x.v.v.#.+.#.^ #.>.y.>.>.X.a.h.h.i.i.x 0.d.q.A.m.n.L.T.L.L.F.;.",
"pXpX7X7XpX7X7X9XaXaXsXy. .[ ~ ^ i p -.4.W +.x.x.6.W.eX1XR.>.>.9.~.Z.Z.*X~.V.R.S.(.).^.q.d.g.h.h.h.i.a.o./ q.S.A.m.T.I.T.P.K.;.K ",
"+X7X7XpX7X7X+X7X7X7XaX+Xy.3.3.9.c.q.9.C.C.V.C.(.S.].,X5XR.q.C.(.A.A.A.A.~.A.(./.{.}.{.}.'.'.j.h.a.p.a.h.0.q.q.(.I.I.L.P.F.t.L K ",
"+X+X+X+X+X+XH.u.Q.OX7XOXQ.W.!.).!.R.S.Z.Z.A.(.(.].{.:X2X/.S.W.^./.;X;X;X].;X2X,X1X}.{.[.'.@Xk.j.a.i.i.a.o.q..XW.K.K.K.F.;.) K ) ",
"u.h.f.f.u.u.e.r.u.f.Q.XXf.!.$X|.>X/./.^.^.*X].].W. X].].^.^.W..X{.{.2X1X1X1X,X:X{.{.[.[.'.'.k.k.a.X.o.o./ a.s.W.8.t.7.;.` ` ) _ ",
"w.w.h.r.w.w.w.| | r.p.s.Q.!.). X,XwX>X2X:X].].W.]. X].;X^.W.W.].].2X5X2X2X:X:X:X,XqXqX[.'.'.k.k.a.X.X.X.a.q.!.!.[ _ ) ` ) _ _ t.",
"| | w.| w.w.c w.| w.r.r.s.$X). X{.}.{.^./.^./.W.].|.;X5X].W.S.W.^.1XuXzXzXuXuXuX1X1X$X[.`.g.j.j.i. .} X.a.q.@Xs.) ) ) ) ) ) _ F.",
"c | | | c w.c c } o.w.r.p.[.[.$XeXeXeX1X2XeX].A.,X5X5X,X:XW.W.W.S.Z.A.*XyXzXuX5XwX,X X^.W.d.g.g...l E o.#Xk.@X1.) _ _ ) ) ) _ F.",
"x c c c c c c x ( } ..3.3.[.[.qXeXeX1XuXuX2XZ.:XeX5XzXeX2X:X:X1XW.9.Z.C.(.2X4X2X:X{.W.W.q.p.d.g. .k P E a.&X&X..) _ ) ) ) ) _ t.",
"x x x c x c x x }  .o. . .'.[.qXeXeXeXuX2XZ.{.eX2X5XzX3X]./.:X;XS.6./.A.C.Z.*X;X/. XW.W.s.s.d.s.[ i k P } q.y.[ ) ) ) ) ) _ _ _ ",
"x x x z x x x x X.,.,. .E W.`.|.eXeXeX3X(.C./.(.(.;X;X*XZ.#.#.#.:.B.~.(.C.5.x.Z.(.R.W.s.s.W.f.3.P p p Y r.( ] _ _ ) ) ) ) ) ) ) ",
"c c x x z x x c p.y.,.>.k s.`. X|.|.2X].C.^.^.6.#.C.B.V.#.^ +.@.4.c.x.5.4.^ B ^ C.C.R.W.W.!.s.%.d p r Y u.[ ] _ ) _ ) ) ) ) _ ) ",
"c x x z z v c | s.r.3.,.P ,.!.'.[. X^.R.C.~.R.6.^ ^ +.#.+.#.C C B B C V B q q * +.R.R.s.E.E.q.~ e p a Q s.k _ =._ _ ) _ _ _ _ _ ",
"x x z z z v c i.y.9.,.,.E ~ g.W. X^.R.6.4.+.^ W B B C @.x.^ @.C @.+.#.4.+.C B > ^ (.E.C.E.9.8.P 5 e 6 ( u.j h ` =.=.;.=.;._ =.=.",
"l z k l v | X.3.y.3. .[ ' k W.d.).!.q.#.P B q C C ^ x.x.B.A.B.B.A.B.6.#.^ #.-.q +./.V.c.9.:.4.i 6 e 6 ..r.s 5 Z K _ ) H H K ) ` ",
"E k z } o.X.r.y.7.2.[ [ 2.f ,.!.W.W.V.W 9 9 B 6.B.B.S.B.B.B.m.$.$.$.$.#.6.C.4.q 5.~.c.8.~ +.~ e 9 5 a 3.o.+ 7 Z K Z d Z G G G G ",
"E E E o.X.X.1.e.8.7.7.2.y.Y I W.W.W.E.P * B ^ >.0.$.0.0.B.x.x.$.B.B.B.9.C.c.5.N %.x.4.W P P B 9 9 ; k X.( s Z G Z 3 Z d Z d d K ",
"E  ... .,...2.1.7.7.7.7.1.{ h >.y.E.~.^ q +.C.6.$.B.B.B.B.B.D.D.S.B.C.B.6.~.x.N W W W A 0 N q , * ; z X.( 3 Z Z 3 d Z Z Z G K Z ",
"1.y.1.:.' R R ! _ ;.e.{ { { h D  .5.E.5.B +.~.E.C.S.D.].D.5X5XD.B.B.6.6.C.K.5.q N B u 0 u 9 - = % 6 E X.T r t t d Z Z Z G K Z Z ",
"_.H.y.=.H j 3 3 g K K H H g D j W Y ^ %.B ~ ~.W.q.C.S.S.A.A.D.B.V.6.#.V.R.Z.x.N q m q q q = = & o p  .E j t m M m d Z G Z G Z Z ",
"H.u.1.` 3 @ 3 4 3 3 3 @ @ j 2.D y F i B , W ~.).R.>.6.0.B.$.+.^ C +.c.~.~.R.-.m q > 0 > : & = = ; Q T w t t M Z 2 Z G Z Z Z Z Z ",
"H.G.e._ H K K K K K H Z T 2.H._.U e q 9 , F c.~.W.C.+.C C q N V ^ 6.~.~.~.-.V 0 1 > > > : = & ; 9 F u 0 m m M t Z Z m Z M Z M 3 ",
"6X+XJ.J.J.J.J.J.J.G.G.F.H.H.oXpXG.w w - 9 u W 9.~.W.V.>.#.4.5.x.v.V.V.c.5.! N q > > < > > = & , 0 w 2 m M t 2 m Z t t 2 3 m 3 3 ",
"aXaX9XpX7X7X7X6X6X6XoXoXoXoXoX7X7XK = - 9 , m W 8.~.~.~.V.V.*Xv.x.6.5.O.B N N > = , 1 > : & : > t m m m m 2 n m b 2 2 3 2 2 2 2 ",
"mXaXpX7X7X7X6X6XoXoXoXJ.H.H.H.H.H.8.w - - , 0 u W 5.4.4.+.v.G.x.W W F V 0 u m < : & > : > & = 0 m 2 2 2 2 n m 2 2 3 2 2 2 2 2 3 ",
"7XoXH.G.t.t.t.*.&.&.=.%.%.] ` ` T T A 5 9 , 0 q A F B F V @.-.+.V m m 0 m m m 1 > > > : 1 = 1 b < < b < 2 n 2 < < b 2 2 2 2 1 3 ",
"H.e.R j 7 @ @ ; @ o O o o o O O X X @ 5 , - , u B m q N N N V V V 0 q b n b < > > & & : & 1 < < < 1 1 2 b b 1 b 2 < 1 1 < 4 = = ",
"*.T j @ o O           . .   + + . . . 5 ; = ; q t u 0 m q n V N m b > b 0 < : > & & & & : < b 1 < b < b 2 1 1 b 1 1 : 4 & $ # # ",
"8 6 @ @ @ + +   . . . . . . . . . .   ; r - ; ; 9 q > t q : q : & > > n 1 & # X # & $ & b b < b b 1 b b < 1 b 4 4 = # X # # : 2 ",
"+ + X X + X X + .   . . . . . . . X - y G u ; ; ; & : q & & & & & = > : : : X # % # : 0 b b b < 1 b 1 b 1 1 4 1 < # # $ : 1 1 n ",
"X X X + + +                     X d d - M M 9 ; = O & = % % % # % % # # > % % # # & < < 1 b b 1 1 1 1 1 b b n N $ $ b b 1 b n J ",
"X + . . @ @ ; @ @ @ @ 3 5 7 8 a D d & 3 y w q - @ O o % % O # # & & & * % % # X $ b 1 < 1 b 4 b 1 4 4 b Z J L $ X b b b m m J O.",
". X X K H.J.oXQ.+XQ.oX+XOXOXrX_.d - - t 9 , - ; h 6 o O O % O % % * % # # . X & 1 1 1 1 1 : 1 $ $ 1 Z L O.L b X $ b n J V Z K O.",
"X   j +XdXVXVXNXVXVXVXVXVXVXZX=.; - - - - - = % Y 9.P * O % % % & & * # # # * q 1 b 1 1 b $ $ 4 n L L L O.K & X b b n J N J K ! "
};
