/* XPM */
static char *U2NyZWVuc2hvdF8yMDIyMTAwNi0xOTQ2NTlfR2FsbGVyeSslMjgxJTI5KyUyODElMjk_[] = {
/* columns rows colors chars-per-pixel */
"64 64 255 2 ",
"   c #040302",
".  c #0B0401",
"X  c #0C0A04",
"o  c #0A0A09",
"O  c #130500",
"+  c #140B03",
"@  c #1C0C01",
"#  c #170906",
"$  c #1A130A",
"%  c #191716",
"&  c #0C1215",
"*  c #250802",
"=  c #380504",
"-  c #281609",
";  c #331A0D",
":  c #391B0E",
">  c #351309",
",  c #271B14",
"<  c #341D12",
"1  c #3B1D12",
"2  c #301F18",
"3  c #2B251A",
"4  c #352215",
"5  c #3C2216",
"6  c #3B251B",
"7  c #38281B",
"8  c #1A2627",
"9  c #173533",
"0  c #252728",
"q  c #3A2C23",
"w  c #3A3327",
"e  c #383836",
"r  c #293233",
"t  c #142421",
"y  c #480203",
"u  c #520F0E",
"i  c #6A0109",
"p  c #75020B",
"a  c #7B0B14",
"s  c #77161B",
"d  c #6A0D15",
"f  c #462817",
"g  c #56341D",
"h  c #4F2D18",
"j  c #6A2D1E",
"k  c #791723",
"l  c #462D22",
"z  c #473629",
"x  c #563925",
"c  c #4B3A31",
"v  c #6D342B",
"b  c #364C35",
"n  c #584229",
"m  c #554736",
"M  c #56553C",
"N  c #4A4D38",
"B  c #68482B",
"V  c #774C2B",
"C  c #78522E",
"Z  c #684C33",
"A  c #695439",
"S  c #785739",
"D  c #6E502C",
"F  c #75633E",
"G  c #50613F",
"H  c #344C49",
"J  c #107A5C",
"K  c #387458",
"L  c #2B7257",
"P  c #376D69",
"I  c #0A7E62",
"U  c #575546",
"Y  c #4E4F4A",
"T  c #685844",
"R  c #775D43",
"E  c #715550",
"W  c #576447",
"Q  c #4D6C53",
"!  c #686749",
"~  c #7A6449",
"^  c #6B6555",
"/  c #766957",
"(  c #737453",
")  c #507A65",
"_  c #7A7464",
"`  c #6E726A",
"'  c #84040F",
"]  c #8D0D18",
"[  c #8D1A25",
"{  c #912934",
"}  c #835A38",
"|  c #87633D",
" . c #966E3D",
".. c #903C45",
"X. c #A83745",
"o. c #91524D",
"O. c #A94B56",
"+. c #836344",
"@. c #886748",
"#. c #946A4A",
"$. c #886B52",
"%. c #936D52",
"&. c #887559",
"*. c #987558",
"=. c #8F764B",
"-. c #A27A5C",
";. c #A77A58",
":. c #B07E5D",
">. c #B35863",
",. c #887A66",
"<. c #977C65",
"1. c #857C75",
"2. c #9A6870",
"3. c #A47D63",
"4. c #B6696F",
"5. c #C9596C",
"6. c #D16D79",
"7. c #E86678",
"8. c #C14150",
"9. c #0D8368",
"0. c #148569",
"q. c #1B8E75",
"w. c #2B8C75",
"e. c #19825F",
"r. c #528974",
"t. c #6C8B77",
"y. c #988657",
"u. c #AE865B",
"i. c #8A8369",
"p. c #99856A",
"a. c #898578",
"s. c #988A76",
"d. c #969174",
"f. c #AB8364",
"g. c #A88668",
"h. c #B68A69",
"j. c #A48C73",
"k. c #A99478",
"l. c #BD9374",
"z. c #B79879",
"x. c #B3946C",
"c. c #B9A279",
"v. c #C69978",
"b. c #CA956E",
"n. c #DBA47C",
"m. c #CCA278",
"M. c #D2A36F",
"N. c #E87889",
"B. c #D87989",
"V. c #379887",
"C. c #2F9586",
"Z. c #3BA092",
"A. c #479D96",
"S. c #4D9789",
"D. c #70968C",
"F. c #49A69A",
"G. c #57A69A",
"H. c #57A692",
"J. c #6FA89A",
"K. c #56ABA6",
"L. c #49B9A8",
"P. c #58B6AA",
"I. c #5DBAB5",
"U. c #4CA9A4",
"Y. c #67B6AB",
"T. c #77B4A9",
"R. c #64BBBC",
"E. c #68BAB7",
"W. c #76BCB7",
"Q. c #70ACAB",
"!. c #4CC2AD",
"~. c #52C2AF",
"^. c #4FC7B2",
"/. c #54C5B2",
"(. c #54CAB4",
"). c #5BCAB6",
"_. c #5CCCBB",
"`. c #5BC6B7",
"'. c #5CD1BC",
"]. c #63CCBD",
"[. c #68C5B9",
"{. c #76C5BB",
"}. c #63D0BB",
"|. c #67BDC2",
" X c #72BBC1",
".X c #6BC3C3",
"XX c #6BCCC3",
"oX c #67C9C4",
"OX c #76C8C7",
"+X c #69D6C6",
"@X c #75D5CA",
"#X c #7BCDD2",
"$X c #75DAD3",
"%X c #73E2D1",
"&X c #8C8985",
"*X c #958D85",
"=X c #9A9689",
"-X c #989796",
";X c #8C9691",
":X c #A79887",
">X c #B59D85",
",X c #A49C98",
"<X c #A98D8D",
"1X c #90A699",
"2X c #B8A488",
"3X c #A8A49A",
"4X c #B7A897",
"5X c #B0AD95",
"6X c #87B5AB",
"7X c #85BCB6",
"8X c #95AFA9",
"9X c #A8A7A6",
"0X c #A8B5AA",
"qX c #B6B3AB",
"wX c #B7B9B7",
"eX c #AFAFB0",
"rX c #9B9DA1",
"tX c #CB9184",
"yX c #ED8A97",
"uX c #C7A788",
"iX c #D7A988",
"pX c #DAB688",
"aX c #CCB497",
"sX c #E0AB87",
"dX c #E1B18C",
"fX c #E7B895",
"gX c #F3B98B",
"hX c #F396A5",
"jX c #C7B8A8",
"kX c #C8BAB2",
"lX c #E0BDA7",
"zX c #86C5BA",
"xX c #8DC3B5",
"cX c #BBC3BB",
"vX c #B2C4B6",
"bX c #ECC696",
"nX c #C9C5BB",
"mX c #D6C6AD",
"MX c #EDCEAD",
"NX c #D9C19D",
"BX c #BEBEC1",
"VX c #85CBC5",
"CX c #86D4CA",
"ZX c #87D7D5",
"AX c #95D3CC",
"SX c #BBC6C4",
"DX c #AFD6CF",
"FX c #91E3DA",
"GX c #B0E1DA",
"HX c #9EE9E5",
"JX c #C7C9C6",
"KX c #D8D8D4",
"LX c #D0D3CC",
"PX c #EDE5DA",
"IX c #E2E5DB",
/* pixels */
"w.r.H.Y.E.OXZXFX/.w.C.Z.C.Z.I. XR.E.VX X|.#X XOX#XOX|. XOXR.|.|.|.|..X.X#XOXOX#XOXOXXXoXoXI.[.oXoXoXoX`._.+XoX+X$X$X$X`._.+X+X'.",
"w.w.w.F.V.q.w.C.q.q.C.C.L.$XZXFXFXZX XP.I..X#XOX#X XOX|.K.I.E.OX#X#X#X#X#X#XZX#X@X[.[.I.].oXXXXXoX+X+X+X+X$X$X$X$X$X+X+X+X'.+X'.",
"w.w.0.0.9.9.0.0.0.9.C.C.U.U.U.Q.W.T.Q.K.K.I.#X|..X|.|.|.R. XZXOXZXOXW.{.CXFXCXFX{.[.P.P.I.XX$X@X$X+X_.oX$X$X%X@X+X'.'._.(.'.'.'.",
"r.e.0.e.0.9.9.0.q.C.9.9.q.V.G.E.OX XE.K.U.A.U.R.|.|.|.|.|.|. XW.OXVX.XE.OXOX{.{.{.@XXX{.XX[.{.@X].`./.L.I._._.(.^.^.^.'.(.'.(.'.",
"J.r.w.r.H.}.}.K.F.P.F.q.q.C.Z.A.K.K.K.K.K.U.U.I.|.#X X#X#X|. XW.VXVXOX|.[..XR.R.R.[.OX@X[.`.I.I.I.`.}.).~.~.L.!.!.^.^.^.^.^.^.'.",
"J.xXxXY.H.AXHXHX@XP.A.C.C.V.A.I.OXZXZXZX X#XZX#X#X#X#X X|. X XVXzX X X|..XOXXXoXoX.X.XXXOX@X@X$X@X].}.[.}.`.~.!.^.(.).'.+X%X+X+X",
"G K r.r.w.w.Z.q.C.F.P.G.E.].R..X.X|.E.R.VXZXVXVX X#XZXZX#XR. X XVXVX XOX.XOX#X#XOX$X@X$X@XXXoXXX].[.oX`.].`.).~./.L./.].'.+X'.'.",
"e.Q e.L e.e.e.9.0.q.L.P.F.F.U.Z.C.A.W.W. XVX XCX#X|. XOXOX XJ.P P P S.Y.CXOX.XXXOXI.P.P.I.oXoX`.].].oX].].XXXX+X+X@X+X+X'.'.^.!.",
"r.G Q e.Q e.e.e.e.q.q.0.0.9.q.C.Z.G.FXHXGX{.R.R.|.|. X XZXQ.9 8 & r H P G.FXVX{.{.[.P.Y.[.].[.`.`._.`.[.%XCX%X@X+X+X+X+X(.}.%X^.",
"Q r.Q Q r.e.L e.e.J J J 0.q.q.q.{.@XzXzX{.A.Z..X|.|.|. XQ.9 r 0 r r H 8 9 J.AX{.[.[.{.@X].XX@XoXoXoXoX].}.}.@X+X_.)._._.(.(.'.'.",
"! G Q G W t.r.r.H.G.Y.[.K.F.L.F.K.G.K.S.F.F.I.R.|.|.|. XP 8 0 & r 0 0 0 & b xX{.{.Y.@X@XXXoXoX/.L./.`._.}._././.).^.(.(.(.(.^.(.",
"t.W W W G W r.r.S.J.Q.G.G.F.F.F.F.Y.K.G.U.`..XI.U.L. X X9 & 8 % 8 % % & & 9 T.@XFX@X}.}./.L.L.L.L./.]._.(.(.(.(.(.(.^.(.(.(.(.'.",
"G G W t.r.b b b K L K V.S.w.Z.F.V.S.K.Y.I.|.|.|.|.I.|.Q.8 o % & & % 0 % & t W.OX{.}.~.L.L.L.L.L.^././.~././.(.~.^.^.(.'.'.+X%X+X",
"n G G D ( G b r.D.xXT.r.S.r.w.q.V.Y.CXOXR.K.I. X|.#X X7XH & , , 0 l c z & 9 zXY.{.[.L.L.L.F.L.L.!./.).+X}.~././.(.'.'.+X%X%X%X%X",
"N G G N b G Q t.r.J.xXJ.H.w.w.S.zXAXW.A.ZX XE.W.FXCX X7XQ c z q l c c e 2 0 D.{.[.[.L.P.!.L.L./.].].].XX).~.}.}.+X+X+X%X%X'.'.'.",
"G N G G G G t.t.W t.t.K L S.zXzXVXY.G.E.OXOX XOXAXVXVXGXD., 6 l l 6 = l e 8 J.@X[.{.{.}.].).XX+X/./.+X+X}.~.).).'.).'.+X'.(.(.(.",
"G N W G W G ! r.G t.r.r.J.xX@XT.H.{.{.K.Y.Y.F.VXAX7XVXDXrX% , 6 l ; , q w b {..X[.@X}.}.XXP.+X@X].L.L.(.'.'.)._._.(.'.'.(.(.).'.",
"W F G F t.F ! F t.t.( t.J.r.r.r.r.Y.Y.[.[.P.E.CXDX8X8X8X&Xe 2 2 c 6 l c w t.xXW.{.{.W.}.@X@X[.I.P.^.^.(./.^.^.(._._._.).(.).}.).",
"F t.D ( y.y.y.t.t.1Xt.r.r.K r.r.H.H.P.P.K.K.E.VX8XD.-X` Y c l Z T l l m q ` D.D.6X6XzXCXAXFX[.L.L.L.~.(.^.L./.R._._.`.[.~.).[.[.",
"W F F =.y.x.c.c.5XvX0Xd.r.r.J.xX{.Y.H.H.G.Q.VX6X^ U c c f 2 > 6 l > * 2 , Y W ` t.t.Q r.t.D.H.H.H.[.Y.P.W.VX X XW.xX7X6X8X8X1X1X",
"( ( =.( y.y.NXMXjXvX0Xd.D.6XDXGXDXzXQ.J.{.AXDXS.0 7 4 ; l q # * q q $ . < q w m Z ^ ^ b e b w r G r.8X0XeXqX<X<X2.2.2.%.o.o.....",
"x.c.d.5Xc.y.5XmX5Xi.t.r.1XvXcX7X7X7XQ.AXzX6XSXQ $ 2 < 4 z c # # 2 6 % O 7 7 l 7 f m ^ ^ l h x x x l U / 4...>.B.4.X.X.{ { [ ] a ",
"pX5X0XmXmXc.mXmXc.t.i.d.1X8X6X1XJ.6XJ.zXDXAXzX` , 4 < 2 f l , . # # . , 6 6 l l l z c E v h j [ s ] s d k a [ { ..X.O.>.>.2.4.5.",
"c.c.aXmXMXMXMXNXc.y.y.5XvX0X1X1XJ.T.7XVXxXAXAX6X3 4 1 < < < q * X O - 6 6 l z 6 < 4 f l { j [ [ [ [ ] ] [ [ ] a [ k d d u { o.>.",
"x.M.y.M.MXbXNXc.=.y.c.jX0X0X8X6XJ.T.7XQ.7XAXKX;X, 5 < < < 1 1 q 2 6 q 6 f 6 6 1 4 < 4 1 j k ] [ ] ] ' ' ] ' ' a d i i d [ [ j O.",
"u. . .x.iXx.c.x.F c.mXmX5XvXvXQ.D.7XW.Q.7XAXDXY , 6 5 1 1 1 1 1 f f 2 u 1 1 6 1 < ; ; > j s a ' ' ' ' ' a ' p p i d [ { X.{ o.o.",
"~ p.c.d.i.&.&./ t.qXvXmX3X1X8X6X8X7XW.7XAXDX&X% 2 < 6 1 1 6 1 f f f 1 1 1 1 2 ; ; ; > > u d p a ' p p i p p p p p X.6.6.yX4.o.B ",
"5X5XvXmXnX5X=X1.qXvXLXPXnXcX0XD.D.D.S.J.7XGX` $ 2 < 1 5 1 1 1 1 f 1 1 1 < < 1 ; ; ; ; 1 h y i a i i i i i i ' ] O.N.yXyXB.4.x x ",
"eXeXwXBXwX-X,XJXnXLXKXPXPXLXcXKXvXJ.8XvXDXGXt.# - - l 5 5 5 1 1 1 : : > < : 1 1 > ; 1 : v { a a i d k ] [ 8.8.7.yXhXhXhXv.S g g ",
"eX8XrXrXeXrX-X*X=XmXKXKXjX:X0X0X0XLXDXDXDXLXY + , _ 7 : 5 5 1 : f : : : : : 1 6 * - ; > T 6.B.B.6.5.>.5.7.7.7.N.yXB.B.hX2.v g h ",
"rXrXrXrX9X&X_ 1.a.jXLXqX_ =X0X-XSX0X9XvXcX&X- $ 9X&X; < : f f f f u f : 1 f 1 , - - > > y u k X.5.B.N.N.N.7.5.N.B.N.hXyXv j h l ",
"` &XrX-X;X&X,XaXjXPXPX>X_ KXJXrXJXcXKXLXt.7 + a.KXe 7 < : : : f 1 < : 1 f > l U > - - > > u y y y d [ X.5.N.N.N.N.B.yXyXv h h f ",
"/ s.&X;XrXrX=X&.j.aXjX:X4XLXKXqXwXIXnXqX` r ` LXrX$ 6 : > < : : : 1 : > 1 - N =X- - - - = y y u y y y y y d s { { O.>.B.o.h h h ",
"&.s.*XqX3X9X*X,.@.=.y.d.j.5XnXIXIXIXqXcX0XSX0XLXD.  4 < < > f 1 1 1 : 1 < < 3 M @ - * 4 l ; = = = y y y y y y y y y y d j f j h ",
"~ p.<.( ^ ^ ^ ~ ~ =.=.y.y.=.&.i.s.nXKXwXcXwXDXBX0   # 2 1 > ; : 1 : 1 < 3 $ X $ @ @ $ 4 7 - $ @ * * * = = y y y = y = y = = = = ",
"~ ~ A ! M A ! ! A M F =.=.=.&.&._ 5XKXSXIXvXLXBX&   . . $ < < > > < < , +   X + @ - - - $ $ + $ O @ O @ * * * = = = = = = = = = ",
"a.A c c x A T &.( ! / ~ $.&.&.i.i.d.0XLXKXLXDXSX0   . . . . $ , # , # .     @ q @ * : C =.h + + @ # + O O . O O @ @ * * * = = * ",
"a._ _ / T T U _ a.,X5X=X_ / i.d.i.a.3XcXBXLXSXJXH   o       # % # X         T m . - x.bXbXx.@ + O @ $ $ + + X . O O O @ O O @ @ ",
"^ 1.a.&X<X1.&XrXwXwXqXIXJX,X&X-X1X9XLXKXwXSXKXSX^   o       % & $ o   .   % :X7 + Z bXbXpXpX7 + + + + $ O + . + O O @ - 4 - O 4 ",
"1.<XeX9X9X,XBXeX&X;XKXIXKXBXwXwXwXKXLXcXSXLXSXeXwX%   o .   % o % o       ^ / @ $ ( M.pXM.M.| 4 c z - 3 , $ 3 q m ,.k.k.,.^ ^ _ ",
"<XrXeX-X` &X<X1.1.9XLXKXwXeXLXBXeXLXBXBXBXBXJXeXLX^     o   % # o .     N ^ - * 4 d.j.l.pXbXiX| F &.k.>X~ M M N ^ >XuXNXd._ ! d.",
"1.*XrX<X&XrXeXeX,X` ^ &XrXrXBX-XeXnXKXKXKXKXJX,X3X,XY . .   , $ . . m _ ,.; * - n :Xk.x.pXbXbXh.;.z.2XuXp.2X:XT &.k.2X4Xd.n ^ :X",
"E ~ 1.` ` rXeXBXeX1.*X=X-X*X-X-X:XqXLXjXkX4XjX<Xs.*X:X3 O X 3 ,   z i.s.,.@ - > / 5X:Xk.pXMXbXn.pXbXz.i.k.aXMX2Xs.jX:X^ Y , ,.s.",
"B B E j.kXeX<X<X3X,X3X1.*X<Xs.<.,.,.g.<.>X<XaX4X4X4X:XT O @ 2 , X 1.,.d.:Xz 5 / :X3X:Xk.c.bXbXm.m.uXk.2X2XlXlXuXk.*XU w 8 o / ,.",
"D D S ~ 2.$./ ~ ~ ! n m m Z Z S +.=.%.p.<.p.k.>XuX:X2X:X4 O # , $ s.-X_ a.,.i.=Xs.:X4X4Xh.>XaXv.x.iX>Xs.s.>X>X1.c % r Y 8   c 1.",
"B D C D V A A +.~ S A ~ S F | | @.@.$.j.j.j.j.k.>X>X2Xk.,.O , 2 # e &X;Xs.=X=X:Xd.*X*X>Xg.j.z.z.p.z.2Xk.k.j.^ + & P r & o o # U ",
"} | | | S | +.#.@.@.$.+.F @.|  . .+.%.g.j.g.z.z.k.c.k.2X4Xl @ N   o r ` =X*X4X:X:X2Xk.j.uXuXaXz.&.2X2XuX2X:X# , Y Y o & & o   , ",
"} } | | | @.@.@.=.@.@.@.+.| +.+.| =.y.g.u.3.g.g.y.@.j.4X:Xc @ 3 + o r Y ` a./ :X3Xp.>XaX2Xz.uX>Xk.c.k.z.,XE % Y &     & &       ",
" .|  . .| |  .|  .| $.p.%.@.$.$.+.f.f.l.f.h.x.h.*.@.S p.E 7 X $ q & & r e M / ,.p.s.s.aXk.j.2X2Xk.2Xi.j._ c ` & .       o     o ",
"} ;.;.+.C | | F | S ,.<.s.k.4X4Xf.z.f.l.v.l.z.f.g.p.&.~ M m q q z N c , U _ T s.&.j.&.j.z.p.x.2Xx.c.k.k.U e r & o         o     ",
"C | | C | | | @.@.S s.<XkXkXjX>XtXg.:.v.h.h.f.:.#.*.*.~ R A Z n x n n M R <.A s.j.,.T R uXk.>X*.y.NXaXd.2 o e %                 ",
"V B B D C | S  .@.~ aXkXLXqXkX>Xh.3.:.:.u.*.*.-.@.+.~ S S +.~ B Z n n x Z &.R ~ <.<.&.k.aXz.uX>Xc.d._ w X & % 0   o   o         ",
"C C V C C C } C } } <.:XlX<XtX3.-.-.#.;.%.@.%.%.+.$.R Z Z Z Z x f l A =.@.+.$.E A R <.>X<.<.j.j.&.A w X X X   & o     X         ",
"D V C } C } } } } +.S R kX<Xg.v.3.3.%.%.#.#.<.*.*.$.S A R S S x x n B D +.S Z A &.g.<.j.,.<.<.s./ m X + o $ $ o   X             ",
"C C V C C } } } } } +.V R <.z.tXv.h.;.*.%.3.f.*.%.@.%.*.@.@.S x B m Z n A R T g Z <.<X$.<.:Xp.k.k.n $ . + $ $ +   X   X         ",
"S S V C } } } } } } } f.-.h.dXpXiXiXh.;.3.3.g.:.3.f.g.3.3.+.Z Z Z R A S +.Z S +.+.S &.$.<.s.p.j.p.M n w + $ o X   X X X .       ",
"R C } V } } } } } } #.iXiXbXfXfXfXiXuXh.f.l.l.x.f.3.3.*.h.%.@.@.@.$.R R +.S @.@.#.=.*.$.$.R R S R R $.3.n @ + X o   X X X X     ",
"B V V } v V } o.} } v.dXdXfXdXdXfXfXiXiXiXv.tXl.g.*.*.-.;.;.h.3.~ S T @.@.f.b.;.;.*.f.%.*.j.j.*.3.l.v.#.B l - X X X X + $ X     ",
"} #.;.#.} } } %.o.h.dXdXfXfXdXiXiXuXiXv.iXm.v.z.%.S $.%.#.;.h.*.S S A Z } b.h.n.b.b.h.<.*.j.z.>Xl.v.sX .g x f * + X $ $ $ $ + X ",
":.b.h.:.h.b.3.v.b.iXiXdXdXdXiXuXh.x.tXv.iXtXv.l.3.*.%.@.#.h.l.*.+.~ ~ S C u.n.n.gXiX;.} +.p.l.l.b.h.n.:.g g l 6 - 7 - - 5 7 7 - ",
"h.;.b.v.v.n.iXiXdXfXdXdXsXsXb.v.v.l.tXv.h.l.l.l.g.g.<.@.3.l.*.*.%.@.R R D *.h.} :.:.#.+.>XMXlXh.h.} :.#.g x Z $.,.&.x 6 h f z n ",
"b.b.sXsXb.u.m.v.tXiXiXv.m.v.tXh.v.uX#.-.l.v.l.l.h.p.@.%.#.%.*.*.*.$.R A } -.#.b.V #.;.;.aXMXtX+.%.j V j g v *.<.R B g h h h n y.",
"b.6.b.sXb.l.b.tXv.n.v.b.b.l.h.h.v.iX3.l.h.>XuXl.-.3.h.3.;.-.-.3.3.%.@.$.%.+.;.h.3.| f.f.4.lX*.g x j g g g Z B x h h h h h n F ! ",
"b.n.n.sXn.v.h.-.b.iXv.h.h.l.v.l.v.uXtXl.l.v.v.h.*.-.v.v.v.h.3.h.h.#.$.&.*.$.| C @.+.-.h.+.g.@.h h h h x x f f f h h h g x +.k.p."
};
