/* XPM */
static char *U2NyZWVuc2hvdF8yMDIyMTAwNi0xOTQ3MDlfR2FsbGVyeSslMjgxJTI5KyUyODElMjk_[] = {
/* columns rows colors chars-per-pixel */
"64 64 247 2 ",
"   c #151215",
".  c #1B1316",
"X  c #1C1519",
"o  c #1E1A1C",
"O  c #140F13",
"+  c #211619",
"@  c #231C1D",
"#  c #2C1D1D",
"$  c #241618",
"%  c #331B19",
"&  c #2C201E",
"*  c #38211E",
"=  c #1F1E21",
"-  c #231E21",
";  c #291F21",
":  c #371D21",
">  c #232324",
",  c #2B2324",
"<  c #262628",
"1  c #2A2629",
"2  c #2B2A2C",
"3  c #272A2B",
"4  c #342424",
"5  c #3C2424",
"6  c #342A2C",
"7  c #3B2C2C",
"8  c #382826",
"9  c #2E302F",
"0  c #38322E",
"q  c #2E2E31",
"w  c #322E32",
"e  c #392F30",
"r  c #343334",
"t  c #3A3434",
"y  c #3B3B3B",
"u  c #393838",
"i  c #2E3133",
"p  c #1F2024",
"a  c #432D2C",
"s  c #4B2D2B",
"d  c #462725",
"f  c #552B2A",
"g  c #44322E",
"h  c #4C322E",
"j  c #4E382D",
"k  c #57332C",
"l  c #433533",
"z  c #4C3533",
"x  c #443D3B",
"c  c #4C3B3B",
"v  c #493A36",
"b  c #533432",
"n  c #5C3B35",
"m  c #533E3C",
"M  c #5B3E3B",
"N  c #573836",
"B  c #532B32",
"V  c #623D3A",
"C  c #683B35",
"Z  c #6D3730",
"A  c #4C211D",
"S  c #3F403B",
"D  c #48443C",
"F  c #56433C",
"G  c #4F523F",
"H  c #6C433C",
"J  c #66433B",
"K  c #73433B",
"L  c #7A483D",
"P  c #3D3E42",
"I  c #593F40",
"U  c #433F41",
"Y  c #673A41",
"T  c #3F4342",
"R  c #444343",
"E  c #4B4543",
"W  c #4B4A48",
"Q  c #534B44",
"!  c #574745",
"~  c #55534C",
"^  c #5C534C",
"/  c #5A5449",
"(  c #5C5B54",
")  c #585754",
"_  c #4D514F",
"`  c #684745",
"'  c #7B4C42",
"]  c #734A4B",
"[  c #754844",
"{  c #64564C",
"}  c #77524B",
"|  c #635C54",
" . c #685A56",
".. c #785655",
"X. c #7B4F50",
"o. c #6B645C",
"O. c #686459",
"+. c #756859",
"@. c #767059",
"#. c #6C6B64",
"$. c #666867",
"%. c #766C65",
"&. c #7A7468",
"*. c #6B7377",
"=. c #777A76",
"-. c #6C716D",
";. c #5E5F63",
":. c #83493E",
">. c #924F3F",
",. c #824E43",
"<. c #874F46",
"1. c #845145",
"2. c #8A5345",
"3. c #8D554A",
"4. c #87564C",
"5. c #935A4D",
"6. c #96594A",
"7. c #895A55",
"8. c #945C52",
"9. c #995E54",
"0. c #A35E50",
"q. c #8A6659",
"w. c #9C6155",
"e. c #976459",
"r. c #88755D",
"t. c #90614D",
"y. c #A76658",
"u. c #B26C5C",
"i. c #AA6957",
"p. c #886865",
"a. c #966966",
"s. c #877967",
"d. c #987A68",
"f. c #857A72",
"g. c #957372",
"h. c #AB6B62",
"j. c #A97668",
"k. c #B6756A",
"l. c #BA7B73",
"z. c #AC7772",
"x. c #C27E77",
"c. c #C0766B",
"v. c #8B826C",
"b. c #8C8266",
"n. c #97866C",
"m. c #878479",
"M. c #958B73",
"N. c #978975",
"B. c #9C9275",
"V. c #9B947B",
"C. c #A58876",
"Z. c #B58678",
"A. c #A39A7D",
"S. c #A79779",
"D. c #B39579",
"F. c #A6866B",
"G. c #ADA17C",
"H. c #C7857B",
"J. c #A37E81",
"K. c #7E8385",
"L. c #878987",
"P. c #9A9889",
"I. c #979996",
"U. c #918E8A",
"Y. c #A69B86",
"T. c #B69A86",
"R. c #AE918C",
"E. c #ACA385",
"W. c #ABA58B",
"Q. c #A7A38B",
"!. c #B6A88A",
"~. c #BEB28E",
"^. c #A8A797",
"/. c #B7A996",
"(. c #BCB394",
"). c #BBB49B",
"_. c #ABADA4",
"`. c #ACAEA9",
"'. c #A6A7A3",
"]. c #ADB1AB",
"[. c #AEB0A5",
"{. c #B2B3AD",
"}. c #BBBBAD",
"|. c #B8B6A8",
" X c #B4B6B1",
".X c #B7B9B3",
"XX c #BABCB5",
"oX c #BCBEB9",
"OX c #B5B9BB",
"+X c #B0AFAA",
"@X c #C98983",
"#X c #CA968A",
"$X c #C99B9A",
"%X c #D49C96",
"&X c #CE948C",
"*X c #C3A68A",
"=X c #C7AB95",
"-X c #D8A79A",
";X c #C4BB9B",
":X c #CABB9B",
">X c #C6B596",
",X c #D4B79C",
"<X c #C1B38F",
"1X c #DDACA2",
"2X c #DAAAA5",
"3X c #C6BAA7",
"4X c #D6BCA4",
"5X c #C9B8B0",
"6X c #E1AEA3",
"7X c #E6B4AD",
"8X c #BEC1BB",
"9X c #BEC0B3",
"0X c #BFC1AC",
"qX c #CCC29F",
"wX c #C9C3AA",
"eX c #D8C2A9",
"rX c #C2C3BD",
"tX c #CCCBBC",
"yX c #C8C6B7",
"uX c #D3CCBC",
"iX c #D6C9B5",
"pX c #D7D3BD",
"aX c #E5D2B9",
"sX c #C5C6C1",
"dX c #C7C8C1",
"fX c #CBCCC4",
"gX c #CDCDC8",
"hX c #D4CDC3",
"jX c #CED0CA",
"kX c #CFD0C2",
"lX c #DBD3C5",
"zX c #D3D4CC",
"xX c #D9D6C8",
"cX c #DBDCD4",
"vX c #D8D9D4",
"bX c #E3DBCC",
"nX c #E5D8C7",
"mX c #E3DED2",
"MX c #E6DFD8",
"NX c #DFE0D5",
"BX c #E5E0CC",
"VX c #EBE3D4",
"CX c #E3E3DB",
"ZX c #E9E5D8",
"AX c #F2E8DA",
"SX c #F0E1CE",
"DX c #DCE0E1",
/* pixels */
"|.lXMXmXuX/.iX5XR.C.C.5XbXnXT.C.C./.iXAXnX/.F.F.Z.,X>XD.,X:XlXAXwX~.>X~.~.>X~.!.~.G.~.<XG.G.wXBXxXZXtXG.W.G.G.~.A.W.B.@.G D / F ",
"pXnXbXmXbXuXAXmXlXiXiXiXAXnX/.C.N.N.3XnXSX4XD.d.F.,X,XD.C.S.xXuXiXwX>X<X~.<X;X~.<XG.G.~.qX<XtXBX0X0X0X(.(.(.B.;XW.A.b.b.G D / / ",
"nXMXbXlXnXhXbXmXAXAXMXnXnXiX!./.5X>XR./.T.!.T.D.D.*Xr.r.s.@.&.P.3XiXqX<X~.qX~.~.~.<X<X~.;X;XxXBXyXQ.(.pX0X~.W.A.;XB.B.M./ D / | ",
"iXlXmXuXxXcXlXyXhXVXAXnXiX).T.5XlXbX/.S.d.d.d.C.!.n.r.B.s.p.f.+.b.Y.G.E.~.<XG.G.<X<XqXqX;XqXpXBXpXtX0XpXBX).(.~.A.B.B.M.| D Q { ",
"5XY.T.iXxXBXBX5X5X5X=X3X4X4X=XY.&.U.Y.C.d.p.a.s.a.+.{  .{ G  .~ &.M.b.n.n.G.<XqX;X;X;X;X(.pXBX0XkXBXBXkX0X0XQ.(.E.!.V.r.O./ G / ",
"nX5X/.3XiXcXxXiXtX/.d.C.T.S.p.&.! ! o.s.+.v.n.R.@.F D D Q  .^ D Q @.J S.b.G.qX~.;X;X;X;X;XtXBXkX0XxXNXkXQ.G.;X(.W.wXA.b.&.{ D ^ ",
"VXBXbXyXtXbXxXcXAXVXiX*X/.T.m.m.Y.O.F ^ o.s.f.f.| D ^ W R R W E W D G @.B.B.~.~.;XqX;X).qX).W.pXpX0X0XqX0XG.W.;XE.(.A.b.s.m.&.~ ",
"mXcXmXVXCXVXCXlXVXbX5X/.nXAXMX|.U.f.( Q &.%.) | E W _ R R R E P ) W G { @.~.B.@.G.qX0X;X;X0XA.V.;XwX~.A.;XqXG.G.A.A.V.v.M..X^.^ ",
"zXkXhXxXmXlXmXBXmXhX3X3XhXAXMXvX5X .%.)  .;.E E u U W u U U P P D W | O.@.P.&.D @.V.0XBXpX0XwXA.M.!.wX(.M.G.qXE.A.A.B.B.).zX8X$.",
"ZXCXmXxXyXuXtXxXmXnX^.bXMXvXvXU.I.%. .! ! U y w 2 U W t P u w i i y O.o.( o.D / D | ;XxXtXpXBXqXG.b.G.qX(.B.A.W.(.E.A.B.).xX0XO.",
"lXVXZXAXmXxXuXiXaXnX/.5XAXzXMXJ.%.$.W I x x w r w u U r r w 1 w t 9 t S S ~ ( ( G G m.I.^.kXpXwXwXG.B.G.(.;XW.;XpX^.G.B.[.pXm.$.",
"yXuX5XiXMXAXVXbXiXeXiXT._._.MXL.) ~ ! U t t t w w u P w r P q u u 9 9 T r y P O.W r ) ( m.0X^.Q.E.W.W.B.B.W.).).;XA.A.B.!.Q.#.m.",
"bXuX3XR.|.uXBXAXnX4X/.R.%.&.f.| ^ W ! U w l w 6 w w w 2 w i P P 2 9 r S u S r r T T _ ) ) =.&.@.v.W.!.E.A.B.E.A.A.A.A.A.M.&.&.P.",
"VXmXpXuXhX3XT.).eXaX=XY...| ! W E ! E t P U P P u u q 2 1 1 1 w < > < 3 i S y t u _ ) _ S W G G &.E.Q.A.^.W.A.A.A.V.E.G.M.b.@.P.",
"cXVXVXZXZXAX5XF.C.!.=XN. .^ ) ! x E l t U 6 w w 1 1 - 1 - 2 - 1 < = & 3 i 9 9 S y S y 9 S ( -.D O.W.Q.^.9XxX[.M.P.^.;XA.B.M.@.P.",
"cXxXzXcXCXAXSX!.*XT.s.{ ^ E ! W c U U t e 6 w w w 3 1 1 < - w P , < p 3 3 < 2 0 9 i i 3 9 ~ ~ / M.W.0XNXcXcXI.m.Q.0XwXA.B.n.&./.",
"NXNXvXvXCXZXwX=X,X-Xr.{ j v F v v l x t t t 6 r r w 2 q q > r W r 2 i i = < 9 t 9 9 3 3 0 9 D O.W.^.xXNXDXsXK.*.*.I.^.A.V.b.b.Q.",
"DXCXCXCXCXZX>X=XG.D.n.+.F }  .../ ! c v x l t r 6 2 r w 2 > ; u r > r R & > 9 9 9 9 > 9 R y D / M.Q.tXNXDX'.K.*.-.-.=.^.W.M.M.m.",
"CXCXCXCXCXZXSX=XF.t.r.b.r.Z.#XT.C.a.^ E v e e e 2 6 6 2 1 1 , 1 r 2 > i 9 3 9 , & > & 9 u r y S ( m._.cXvXI.*.*.*.$.) K.|.m.m.M.",
"cXCXZXZXCXVXaX4XF.F.r.t.F.*X=X-X-X=XJ.....! u x 7 t e 6 6 1 1 - < 1 3 3 9 9 3 3 > > 2 3 < 3 r 9 0 _ U.vXDXOX*.K.-.$.$.*.[._.O.m.",
"xXuXnXpXwXiXaX,XH.F.D.H.-X%X-X1X2X2X$Xg.g.o.I l v l c l 0 8 , , 1 w > > > 3 9 i 9 3 3 3 < 2 2 u u S ( I.DX8XK.K.L.*.*.$.=.].*.( ",
"pXiXiX:X!.!.,X,XD.F.D.-X-X-X-X6X2X2X$Xa.....I a b m ! N m v 6 , 1 1 > - = = < 9 3 3 > & i i 2 2 y S y _ 8X8XK.].vX].8X=.;.L.K._ ",
"wX>X>X>X,X,XZ.F.H.qX,X-X-X-X-X6X2X2X$Xp.X.p.! B j J J n J F v , 1 1 > > & > 9 3 < 3 3 3 r r 3 2 i S i _ K. XK.fXvXjXvXOX$.$.-.K.",
"eXeX:X,X=X,X,X*XD.-X-X-X-X-X1X6X2X$X$X7...] M N k n k F [ J g , @ < 2 1 3 3 < 3 3 3 3 9 i 2 2 3 9 i y ( `.'.8XvXgXjXzXdXK.$.;.'.",
"<X!.D.!.*X,X,X*X=X,X-X6X6X6X6X6X%X%X%Xa.X.` [ [ k f Z H ' H g & @ > > , 3 > 3 > > > > 3 3 2 2 q 9 9 T ) L.'.zXzXK.K.I.{.jXL.-.[.",
"aX=XD.F.F.D.D.*X,X,X-X6X7X6X6X6X6X%X%XJ.C 7.4.C [ ' ' 1.L H N * @ @ = o p > 9 2 2 < > > > 2 2 2 3 i _ ( U.dXzXfX-.$.#.=._.'.$.P.",
"aXeX,X,X*XD.F.F.n.R.-X6X6X6X6X-X2X%X%X&X7.a.8.1.<.1.2.2.1.L V s & & & > p > 2 2 3 < 3 p > 3 3 2 9 i T _ K.zXvX8X#.#.#.#.#.&.-.-.",
"qX*X,X4XeX:X=X+.j } #X-X-X-X-X-X%X$X$X$Xl.a.e.8.8.3.3.1.1.L K n d & p p = p > 3 > > 3 , > 3 > 2 i i y W -.8XvXsX#.O.O.O.#.-.&.&.",
"D.D.D.D.D.eXA.g 8 ` R.&X%X%X%X&X@XJ.g.a.a.7.7.e.e.5.3.3.1.:.L J j 8 & = o o = p > > > 2 p < 3 3 3 i i T K.rXvX5X( / ^ | ( $.#.%.",
"*XD.=XD.D.D.q.j F } @X&X%X&X&XZ.9.X.N I N I J [ 4.3.8.3.3.,.L H n g & o & = p p = = > 2 3 > 3 3 3 3 i T L.vXvXI.^ Q Q / ^ ( | | ",
"D.*X,X4XqX,XF.e.j.e.Z.&XH.&XH.y.X.B d d : : 5 5 s H 4.4.1.L L K n s 8 & o o = p p > 3 < 9 3 3 9 9 9 i y I.vXzXrXm.@.O./ E Q ~ ) ",
"@.!.<X,XeX4X*XZ.Z.y.k.@XH.H.k.y.7.,.] B 5 : # : 4 s V ' 1.:.L K n d , & o o = > p p & > > 2 9 3 i i i W I.vXjXfXN.s.s.&.O.Q Q W ",
"v s.T.T.iXnX3Xz.z.e.h.x.x.k.y.9.8.t.q.4.} H k * % * d C L L K K J d * , o o o p > p = > 2 2 3 2 i r u )  XzXzX|.Y.N.f.s.s.&.O.{ ",
"t ^ /.iXiXlX/.C.R.h.7.H.@Xh.8.3.3.3.t.w.e.e.e.[ j * * s H L K K H j 4 , o = = < > = p > 3 2 2 q i 2 R U.rXgXzXsXY.U.B.s.s.v.b.&.",
"t g Q.VXxX+X .b Y V <.2X@X9.3.>.<.3.5.w.t.5.9.w.t.H d s C K K K C n 7 # @ = p > > = > < > 2 r r r r $.jXgXgXzXfXY.N.N.v.s.M.v.v.",
"F 0  .|.lX5XU.p.` A @X2Xl.6.<.<.4.8.e.j.j.w.<.2.e.7.K f k K L K L C h , @ = p > p p < 3 2 i y r u u =.vXjXjXjXtXY.V.N.v.v.v.v.v.",
"%.g 7 f.5XnXR.} ` T.7X%Xh.6.6.<.1.L L q.q.a.t.L :.t.4.H Z H L K K C b 4 @ = = = = > > 2 2 2 i r u D _.zXjXjXjXfX/.Y.M.M.v.v.v.v.",
"g.m 6 %.iXlXU.f #X7X%Xx.u.0.0.9.3.Z ' q.} f K H H :.4.' Z H K K K H N 8 - = = = p > 3 2 2 9 2 r y =.jXjXjXkXjXtX).W.Y.V.M.M.M.M.",
"g.F 7 v |.5Xg.J.7X%Xl.u.y.u.y.0.9.<.j.=Xq.% * * f H 4.4.' J L L K H N 8 - p > = > > 3 3 q r i 9 O.|.zXkXjXkXjXfX0X).W.E.V.M.M.M.",
"g.F 7 6 J.$XR.7X%XZ.h.u.y.u.u.c.h.9.8.R.+.% * h A k L 1.' L L L [ J z 4 @ = > p > < 3 2 2 r S D I.xXkXjXkXjXfXfXtX9X).W.E.V.V.V.",
"p.c 6 8 ` T.7X%X@Xz.y.h.y.h.u.c.x.k.3.L 4.V k k k K L :.2.L L ' [ V a , = p = = 3 > 3 2 2 u y W ^.kXjXfXjXfXfXtXdXtX}.^.E.Q.E.Q.",
"p.j 7 # p.7X%X%Xx.k.0.0.0.y.u.c.x.H.k.0.L K K K L 2.2.t.t.2.:.L [ b # @ - - > > 1 2 1 q r r t ( ^.|.kXfXfXfXfXfXrXrX8X).^.E.).yX",
"p.j 8 j R.#X&XH.k.0.6.0.0.0.u.c.x.H.@XH.k.0.w.y.i.0.0.t.6.:.:.L [ h # @ - > < > 1 ; 1 w r u y m.0X8XkXfXfXfXtXdXdXtXrX}.^.^.Q.0X",
"p.m 4 7 d.z.h.h.y.0.0.0.>.>.0.c.x.x.H.&XH.H.Z.k.u.i.0.6.>.>.2.L ` j @ o > 1 - , 7 l U ^ Q t ( {.9XtXfXfXfXdXfXrXrXrXrXyX0X^.^.^.",
"+.z 4 ; ` 7.7.7.0.0.y.0.:.>.y.c.x.x.H.H.H.H.H.u.u.i.0.6.t.>.:.[ J 7 @ > 1 7 t F ` ` ....%.! ^.`.9XfXfXdXfXdXtXrX}.9XrXrXrX}.Q.Q.",
"..a 4 : d f N f B :.9.9.:.Z h.H.@XH.H.H.H.H.F.u.i.i.t.6.:.:.L H a 4 , , 6 v ! ] ` ` ] ` ..+XkXXXrXtXdXdXrXrXdXrX}.}.rXrXrX9X^.P.",
"^ 7 : I Y : % % % % Z :.Z :.x.@X@X@XH.H.k.u.u.i.0.6.t.t.>.L [ F 4 , , , 6 N I V ` ] ] ] R.lX5XsXdXgXdXdXdXdXrXrX}.XXrXrX9X8X_.P.",
"! % a J.J.p.d % : A A Z Y c.@XH.@Xx.c.k.u.i.0.0.t.t.>.1.} L H j , , , 6 v ! N N ] X.] X.+XhX5X8XdXdXdXdXrXrXrXrX9X|.9X9X8X8XXX^.",
"l # b ..X.9.X.B : Y ,.5.j.H.x.l.l.k.k.h.y.9.9.3.3.2.,.' L ` F g 1 ; 6 I ` ` V Y ] ..] a.hXfXrXoXdXdXsXsX8XsX8X8X8X[.|.9X8X9X0X{.",
"t : B N Z :.7.X.B B 7.j.k.l.l.l.k.h.y.e.9.5.3.4.<.' K [ H n g 6 ; ; l I I B ] ] ] X...5XhXsXsXsXdXsXsXsXsX8XsX8X9X|.[.0X8X9X].9X",
"6 ; : d A f Y X.X.s B 7.z.k.h.h.u.y.w.t.3.4.,.' [ [ V J F h 8 1 ; 2 m M B V ` ] ] ..'.hX5XgXsXrXsXsX8XsX8X8X8X8X9X9X_.{.9X].].9X",
": : 5 B Y K Z B I V d k 8.a.9.9.w.9.6.t.<.1.[ [ H J J M g 4 1 > ; l ! Y ] ] ] ] ..'.gXsXsXsXsXsXsXsX8X8X8X8X8X8X9X9X[.[.[.I.9X9X",
"- ; : Y X.7.Y B d f h d k 4.3.3.>.t.>.} } ' [ H J F F m 8 , > , , c ` Y X.7.X...$XgXsXsXsXsXsXrXOXrX8X8X8XOX.X8X8X9X].'.'.[.0X0X",
"; $ : B B B A B f s b s f C ' 1.L L L L [ H H V F n j 7 6 , , @ 6 I ^ ] ....p.I.sXoXsXsX8XsX8X8XsX8X8X8X8X8X8X8XOX9X9X9X[.[.'.'.",
"- $ $ : A : d : d B h f d k H K J K H J H J M M M z g 6 , ; ; ; t I `  . . .U.5XrXrXoXrXsXoX8XsXOX8X8X8XOX9XOXOXOX].].9X0X[.'.^.",
"+ - + + $ $ : : 5 s j h d h n n n F J J J F M j a 8 4 , ; - @ , l I ! ` ! %.sXsX5XrXrXrXsXoXoXoX8XrX8XOX9XOX.X9X9X8X9X].9X0X[.I.",
"= o X X . $ # * 4 5 s s d j j h h h j h z s g 4 # ; ; ; ; - - 6 l I I ^ &.XXsX5XrX5XsXoX8X8X8XoXoXoXoXoXoXoXXX.X].OXOX]. X X].].",
"o X X   . $ @ 8 4 * 8 * * 5 g 8 8 d 5 8 4 8 4 & # ; ; ; ; ; ; l x ! ! | '.sX8XsXrX8XOXsX8XoXoXoXoXoX.XoX.X.X.X.X8X]. XOX X X{.].",
"o X   X . X . & # # % & & & & % ; # # # @ @ & , @ @ - - - ; e v c m I ^ |.rXoXoXoXoX8XoXoX5XOXoX.XoX.X.X.X.X X.X]. X X X].].].].",
"+ X X     . . & $ @ @ $ $ @ $ $ $ + $ $ $ @ @ & - @ X o - : e z c I I ~ m.`.sXsXsX8XoX5XoXOXoXoX.X.X.X.X.X X X X X X].].].].].].",
"X o .       . X . & $ $ . $ . . $ . $ X + @ o @ + X o + ; 7 l v b m I ^ ( D -.L.I.OXOXOX.XXXXX.X.X.X.X X X X X{. X X].].].]._.`.",
"o X X     . . . . + X $ $ . . . . . . + o o . X X X X ; 6 7 a B z z E Q -.O.y y _ ;.'.oXXX.X.X XXX.X X X{. X{.{.{.].].].].].`.`.",
"X o     O O . . . . . $ . . . . . . . . X X X   X . + 4 7 a h s z c F ^ | &.$.y P U ;.I.`.OXOX.X X X X X X{.{.{.].{.].`.`.`.'.`.",
"o X X   O O O . . . . . . . . . . . .   .     X X X - 4 7 a h b z z m ^ { O.#.R P P U _ ;.L. X+X+X X X+X{.{.{.].`.].`.`.`.`.`.'."
};
